<?xml version="1.0" standalone="no"?>
<!DOCTYPE svg PUBLIC "-//W3C//DTD SVG 20010904//EN"
 "http://www.w3.org/TR/2001/REC-SVG-20010904/DTD/svg10.dtd">
<svg version="1.0" xmlns="http://www.w3.org/2000/svg"
 width="2400.000000pt" height="1228.000000pt" viewBox="0 0 2400.000000 1228.000000"
 preserveAspectRatio="xMidYMid meet">
<g transform="translate(0.000000,1228.000000) scale(0.100000,-0.100000)"
fill="#000000" stroke="none">
<path d="M6183 11856 c-4 -7 -19 -19 -32 -26 -23 -12 -23 -16 -18 -83 4 -46
11 -74 20 -79 8 -4 18 -25 22 -45 4 -21 15 -46 26 -56 15 -14 19 -32 19 -81 0
-65 7 -76 47 -76 16 0 63 -44 63 -59 0 -15 37 -41 59 -41 29 0 21 54 -12 85
-45 41 -63 92 -44 125 29 48 24 199 -8 247 -34 52 -55 73 -76 73 -9 0 -19 7
-23 15 -7 19 -32 20 -43 1z m73 -103 c6 -13 18 -31 27 -41 18 -20 25 -162 9
-162 -16 0 -51 58 -57 96 -4 22 -13 49 -21 61 -23 37 -18 75 8 71 12 -2 28
-13 34 -25z"/>
<path d="M4343 11783 c-23 -9 -17 -100 7 -113 11 -6 20 -17 20 -25 0 -8 9 -20
20 -27 11 -7 20 -20 20 -29 0 -9 8 -27 19 -40 10 -13 22 -35 26 -47 4 -13 16
-33 26 -43 10 -10 19 -29 19 -42 0 -12 9 -30 20 -40 11 -9 20 -29 20 -45 0
-32 40 -82 64 -82 26 0 38 36 27 77 -6 20 -8 40 -5 45 8 13 24 -1 24 -21 0
-10 11 -30 25 -45 14 -15 25 -31 25 -36 0 -12 56 -23 79 -15 12 3 32 31 47 63
37 78 57 91 74 46 16 -41 84 -32 88 12 3 26 8 32 40 40 30 7 38 14 40 37 5 44
51 27 72 -27 5 -15 23 -35 40 -44 16 -9 33 -25 36 -34 11 -34 54 -58 106 -58
47 0 52 3 109 60 l60 59 -20 20 c-27 27 -73 12 -99 -33 -19 -33 -60 -50 -89
-39 -15 6 -13 20 9 115 8 34 9 54 1 70 -6 13 -15 35 -22 51 -23 57 -91 10 -91
-64 0 -37 -4 -49 -15 -49 -10 0 -15 10 -15 28 -1 72 -82 109 -88 39 -2 -20 -8
-37 -13 -37 -10 0 -14 8 -23 51 -3 15 -18 34 -32 44 -26 17 -28 17 -45 -6 -17
-22 -18 -23 -37 -6 -42 38 -57 17 -57 -82 0 -50 -4 -76 -12 -78 -9 -3 -13 6
-13 29 0 61 -52 80 -80 28 -6 -11 -17 -20 -25 -20 -8 0 -18 -7 -23 -16 -16
-29 -32 -4 -32 51 0 60 -16 85 -56 85 -33 0 -39 -21 -25 -84 8 -38 9 -61 1
-80 -13 -36 -33 -28 -41 15 -3 19 -10 43 -16 54 -6 11 -23 47 -38 80 -16 33
-34 64 -42 68 -7 4 -13 17 -13 28 0 10 -9 27 -20 36 -11 10 -20 28 -20 40 0
18 -28 46 -42 42 -2 0 -9 -3 -15 -6z m612 -294 c11 -16 -4 -59 -20 -59 -10 0
-15 10 -15 28 0 39 20 56 35 31z m-175 -78 c0 -24 -25 -45 -45 -37 -18 7 -20
42 -2 49 27 12 47 7 47 -12z"/>
<path d="M6773 11761 c-25 -12 -34 -25 -39 -51 -3 -19 -11 -49 -16 -66 -11
-32 14 -119 47 -168 20 -28 19 -46 -2 -46 -26 0 -85 86 -106 155 -30 94 -24
90 -113 88 l-78 -2 -43 -48 c-59 -66 -63 -136 -9 -177 31 -23 36 -24 50 -11 8
8 19 15 25 15 6 0 26 16 45 35 53 52 75 46 132 -39 53 -79 53 -80 42 -93 -6
-8 -13 -47 -16 -88 -4 -72 -4 -75 27 -106 35 -35 83 -36 109 -1 19 24 10 146
-12 171 -44 48 -12 89 69 89 75 0 146 65 98 90 -22 11 -39 6 -64 -19 -21 -21
-28 -23 -47 -11 -15 10 3 70 25 87 29 22 28 118 -1 150 -14 15 -26 32 -26 36
0 5 -9 9 -19 9 -11 0 -23 5 -26 10 -8 12 -12 12 -52 -9z m72 -78 c19 -18 15
-81 -6 -93 -6 -4 -14 -22 -17 -39 -16 -76 -46 -8 -36 79 8 77 23 90 59 53z
m-315 -90 c-1 -49 -81 -122 -94 -87 -11 30 -6 52 22 82 36 41 72 43 72 5z
m248 -349 c-2 -22 -7 -39 -13 -39 -12 0 -19 60 -10 83 10 28 27 -3 23 -44z"/>
<path d="M3107 11623 c-4 -3 -7 -79 -7 -169 0 -89 -3 -169 -6 -178 -12 -32
-24 -3 -24 58 0 75 -14 99 -55 94 -25 -2 -30 -9 -37 -41 -4 -20 -14 -47 -23
-60 -38 -59 -15 -289 31 -315 39 -22 69 22 45 66 -20 37 -24 112 -7 112 10 0
20 -15 27 -45 15 -61 54 -66 65 -7 4 20 11 46 17 57 5 11 13 55 16 99 8 106
31 118 31 17 0 -59 3 -74 20 -88 11 -10 20 -23 20 -29 0 -14 20 -23 38 -17 19
7 14 47 -8 61 -17 10 -20 23 -20 82 0 51 -6 80 -21 110 -18 33 -20 50 -14 95
6 51 4 56 -21 80 -26 24 -54 32 -67 18z"/>
<path d="M3377 11593 c-28 -28 8 -83 55 -83 29 0 30 2 24 32 -10 50 -53 78
-79 51z"/>
<path d="M620 11540 c-9 -6 -136 -10 -317 -10 l-303 0 0 -40 0 -40 329 0 c366
0 363 -1 345 63 -10 34 -29 43 -54 27z"/>
<path d="M14420 11525 c-11 -13 -14 -67 -14 -257 -1 -271 0 -277 68 -264 46 9
2266 9 2300 0 17 -4 35 0 51 10 l25 16 -1 213 c0 117 3 220 6 229 4 9 -3 26
-17 42 l-23 26 -131 -9 c-161 -10 -2177 -7 -2220 3 -23 6 -34 4 -44 -9z m608
-185 c4 -59 17 -70 36 -31 21 40 59 50 94 24 43 -32 41 -143 -3 -155 -44 -12
-85 0 -95 28 -12 30 -18 30 -29 0 -17 -44 -112 -43 -163 2 -44 38 14 142 78
142 13 0 28 9 34 21 20 35 45 19 48 -31z m419 18 c17 -18 33 -42 35 -52 4 -22
34 -44 45 -32 4 4 -3 16 -17 26 -28 21 -14 50 24 50 47 0 61 -23 61 -97 l0
-68 -40 -8 c-64 -14 -95 3 -95 53 0 22 -3 40 -7 40 -19 0 -95 -45 -100 -59
-10 -28 -24 -40 -39 -34 -15 5 -22 192 -7 206 22 22 110 6 140 -25z m810 18
c15 -15 23 -170 9 -184 -33 -34 -49 -7 -43 72 6 82 -1 94 -48 76 -24 -9 -25
-14 -25 -84 0 -76 -10 -97 -35 -76 -11 9 -15 33 -15 81 0 64 -2 70 -25 81 -25
11 -32 28 -17 42 7 9 190 1 199 -8z m208 -6 c3 -11 4 -24 1 -29 -9 -14 4 -41
20 -41 8 0 14 4 14 9 0 17 31 41 54 41 56 0 97 -102 63 -157 -14 -23 -89 -25
-112 -3 -20 18 -23 19 -35 5 -17 -20 -37 -19 -48 3 -10 19 -8 165 2 181 11 18
34 13 41 -9z m-1833 -22 c5 -54 94 -54 100 0 3 24 7 27 43 27 l40 0 11 -83
c12 -93 5 -112 -41 -112 -40 0 -55 11 -55 40 0 63 -93 54 -102 -10 -2 -17 -9
-25 -23 -25 -18 0 -20 8 -23 75 -3 94 3 120 28 120 14 0 20 -8 22 -32z m1733
8 c41 -18 45 -42 10 -58 -28 -12 -34 -45 -10 -54 57 -22 29 -84 -28 -63 -20 7
-37 15 -37 19 0 3 -2 34 -4 70 -6 97 6 112 69 86z m-599 -14 c6 -4 17 -18 24
-31 12 -24 13 -24 26 -5 26 37 35 44 58 44 52 0 77 -36 74 -104 l-3 -61 -45
-6 c-55 -8 -69 -3 -81 28 -11 29 -29 21 -29 -13 0 -29 -41 -71 -78 -81 -28 -7
-71 37 -72 73 0 12 -7 27 -15 34 -23 19 -20 77 5 85 11 3 25 15 30 26 11 20
82 27 106 11z"/>
<path d="M14914 11275 c-10 -25 4 -45 30 -45 30 0 40 13 31 40 -8 24 -53 28
-61 5z"/>
<path d="M15350 11321 c0 -29 18 -36 40 -16 24 21 17 35 -16 35 -17 0 -24 -5
-24 -19z"/>
<path d="M15682 11291 c-24 -15 -10 -56 21 -59 32 -4 44 16 27 47 -11 22 -27
26 -48 12z"/>
<path d="M3603 11434 c-17 -7 -16 -35 2 -70 8 -16 15 -45 15 -64 0 -59 10 -78
42 -85 36 -8 51 4 52 45 1 39 19 40 27 2 3 -16 11 -36 18 -43 6 -8 18 -23 26
-34 11 -16 17 -18 32 -9 26 16 28 43 4 74 -11 15 -23 40 -27 55 -4 15 -13 29
-20 32 -8 3 -14 13 -14 23 0 29 -27 45 -55 32 -22 -10 -26 -8 -37 16 -13 26
-39 36 -65 26z"/>
<path d="M3363 11411 c-23 -22 -39 -203 -22 -248 13 -34 40 -25 54 17 8 23 18
35 30 35 12 0 22 -12 30 -35 17 -49 47 -48 59 2 9 34 12 37 40 35 29 -2 31 1
34 33 3 45 -6 58 -46 66 -27 6 -33 3 -43 -20 -17 -36 -31 -22 -28 28 3 58 1
66 -14 66 -8 0 -22 9 -32 20 -23 25 -36 25 -62 1z"/>
<path d="M533 10894 c-17 -27 -18 -199 -18 -5294 0 -5730 -4 -5332 57 -5344
77 -15 168 1 168 30 0 29 -58 63 -92 53 -18 -5 -36 -5 -40 -1 -7 7 -12 10471
-5 10478 2 2 3157 6 7013 9 3855 4 7529 7 8164 8 635 1 1163 -1 1173 -5 16 -7
17 -89 15 -1580 l-3 -1573 -46 -5 c-26 -3 -54 -12 -62 -19 -9 -7 -45 -15 -79
-18 -35 -3 -70 -11 -78 -18 -8 -7 -39 -15 -69 -18 -30 -4 -61 -13 -71 -22 -10
-9 -36 -15 -71 -15 -32 0 -66 -7 -84 -17 -16 -9 -65 -19 -107 -23 -48 -4 -84
-12 -95 -22 -12 -10 -47 -17 -106 -21 -57 -3 -94 -10 -105 -20 -11 -9 -50 -17
-108 -21 -51 -4 -113 -14 -140 -22 -64 -19 -93 -18 -134 7 l-34 21 27 22 c15
12 27 29 27 38 0 9 11 30 25 46 14 17 25 36 25 43 0 7 12 24 28 36 26 22 27
23 8 38 -35 27 -90 11 -100 -30 -9 -34 -66 -108 -123 -159 -26 -23 -65 -60
-88 -83 -24 -23 -45 -40 -47 -37 -12 12 5 250 21 279 13 25 16 79 19 324 3
241 7 299 19 318 9 14 17 58 21 110 3 58 11 100 23 123 11 19 19 50 19 69 0
19 8 43 17 53 10 12 18 42 21 79 5 60 4 62 -34 95 -20 19 -47 34 -58 34 -10 0
-28 8 -39 18 -17 15 -40 17 -186 16 -427 -1 -1103 -2 -1471 -1 -340 1 -428 -2
-548 -17 -158 -21 -657 -18 -737 4 -22 5 -132 13 -245 16 -155 4 -216 10 -250
22 -40 15 -118 17 -750 17 l-705 0 -3 -30 c-5 -47 20 -75 46 -52 27 24 1239
22 1281 -2 18 -10 77 -15 210 -18 138 -3 199 -9 236 -21 60 -20 1067 -24 1305
-5 87 7 206 8 335 2 528 -22 1048 -19 1281 7 55 6 229 -20 251 -38 18 -14 16
-48 -2 -68 -9 -10 -19 -40 -24 -68 -4 -28 -14 -58 -21 -67 -7 -8 -15 -53 -19
-99 -4 -49 -12 -90 -21 -101 -11 -13 -16 -75 -21 -281 -5 -145 -13 -281 -18
-301 -6 -21 -14 -112 -17 -203 -4 -101 -11 -177 -19 -195 -7 -16 -16 -53 -20
-82 -4 -29 -13 -57 -21 -64 -18 -15 -18 -38 1 -45 24 -10 23 -1293 -1 -1330
-14 -21 -17 -69 -22 -322 -4 -255 -7 -300 -21 -316 -13 -15 -17 -48 -19 -190
-2 -124 -7 -182 -19 -211 -10 -28 -17 -91 -20 -205 -4 -124 -9 -169 -20 -182
-8 -9 -17 -36 -20 -60 -10 -73 -132 -248 -174 -248 -5 0 -14 -9 -21 -20 -7
-11 -20 -20 -30 -20 -27 0 -48 -11 -48 -26 0 -8 -10 -14 -25 -14 -14 0 -33 -9
-42 -20 -11 -12 -30 -20 -48 -20 -18 0 -37 -8 -48 -20 -13 -15 -29 -20 -67
-20 -27 0 -77 -9 -110 -21 -74 -26 -764 -24 -870 2 -95 24 -2626 20 -2739 -3
-57 -13 -129 -18 -230 -18 -80 0 -241 -7 -357 -16 -192 -15 -220 -15 -333 0
-68 9 -149 16 -182 16 -40 0 -71 6 -96 20 -21 11 -57 20 -81 20 -29 0 -53 7
-69 20 -14 11 -41 20 -60 20 -20 0 -36 6 -39 14 -3 8 -20 18 -37 22 -18 3 -43
15 -56 25 -13 11 -31 19 -40 19 -9 0 -22 9 -29 20 -7 11 -21 20 -31 20 -24 0
-111 83 -111 105 0 9 -8 30 -17 48 -23 42 -25 258 -4 297 8 14 16 66 19 125 4
77 9 105 23 124 15 18 19 41 19 95 0 52 6 83 20 111 15 30 20 59 20 120 0 61
4 87 17 105 15 21 19 55 23 190 4 120 9 172 20 190 13 21 15 106 18 540 3 457
5 518 20 540 11 17 17 54 20 120 3 69 9 100 20 113 12 13 18 43 20 95 3 52 9
83 20 95 9 11 17 43 20 80 2 34 11 69 18 78 8 9 18 45 22 81 5 39 15 72 25 82
11 12 17 34 17 64 0 35 5 52 20 65 13 11 20 29 20 55 0 25 7 43 20 55 12 10
20 29 20 47 0 17 9 39 20 50 11 11 20 29 20 41 0 11 9 32 20 46 11 14 20 35
20 47 0 12 9 29 20 39 11 9 20 29 20 45 0 16 9 37 20 47 11 10 20 31 20 47 0
15 9 37 20 48 14 14 20 33 20 65 0 31 5 47 17 54 15 8 19 29 24 118 3 59 10
118 14 131 8 25 4 27 -28 10 -12 -6 -29 -14 -37 -18 -11 -5 -16 -28 -18 -92
-2 -70 -6 -89 -22 -103 -15 -13 -20 -31 -20 -67 0 -35 -6 -54 -20 -68 -12 -12
-20 -33 -20 -53 0 -20 -8 -39 -20 -50 -11 -9 -20 -29 -20 -44 0 -17 -8 -33
-20 -41 -12 -7 -20 -23 -20 -40 0 -15 -9 -35 -20 -45 -11 -9 -20 -26 -20 -38
0 -11 -9 -32 -20 -46 -11 -14 -20 -37 -20 -50 0 -14 -9 -36 -20 -50 -11 -14
-20 -40 -20 -57 0 -19 -8 -38 -20 -49 -14 -12 -20 -29 -20 -59 0 -24 -7 -49
-16 -59 -9 -10 -19 -44 -24 -76 -4 -32 -14 -71 -23 -88 -9 -16 -17 -49 -17
-71 0 -23 -9 -61 -20 -85 -11 -26 -20 -66 -20 -97 0 -33 -7 -66 -20 -89 -15
-28 -20 -57 -20 -110 0 -54 -5 -83 -20 -110 -19 -36 -20 -57 -20 -458 0 -339
-3 -436 -16 -505 -8 -47 -18 -170 -21 -275 -4 -151 -8 -195 -21 -215 -11 -17
-17 -56 -20 -125 -3 -72 -9 -105 -20 -118 -10 -11 -17 -45 -20 -100 -3 -53
-11 -94 -23 -117 -14 -25 -19 -56 -19 -114 0 -63 -3 -81 -17 -92 -25 -18 -32
-365 -9 -404 8 -14 21 -39 29 -55 20 -44 126 -145 151 -145 7 0 19 -9 29 -20
9 -11 27 -20 39 -20 13 0 29 -9 36 -20 7 -11 23 -20 37 -20 14 0 28 -7 31 -15
3 -8 22 -17 42 -21 21 -4 53 -15 72 -25 19 -11 52 -19 74 -19 24 0 47 -7 59
-18 14 -13 41 -18 105 -21 58 -2 94 -9 111 -20 32 -21 525 -23 631 -2 36 7
178 16 315 21 171 5 274 13 325 24 100 22 2086 19 2255 -4 168 -23 1166 -21
1192 2 13 12 36 18 71 18 39 0 57 5 72 20 11 11 31 20 43 20 13 0 32 9 41 19
10 11 31 23 46 26 16 3 31 13 34 21 3 8 14 14 25 14 11 0 25 8 30 19 6 10 21
21 33 24 40 10 168 144 168 176 0 9 9 24 20 34 14 12 20 29 20 58 0 26 7 50
20 66 17 22 20 41 20 140 0 87 4 121 17 146 13 26 17 70 21 237 3 172 7 208
21 224 14 15 17 56 21 265 5 183 10 254 20 276 12 25 15 152 18 750 l3 720
165 -3 c145 -3 168 -2 184 13 15 13 37 17 100 16 114 -2 164 33 86 59 -39 13
-205 6 -234 -9 -10 -6 -29 -7 -41 -4 -14 4 -26 1 -32 -8 -6 -10 -37 -14 -119
-16 l-110 -2 0 30 c0 29 73 119 96 119 4 0 17 11 30 25 27 29 96 27 150 -6 39
-23 155 -26 211 -5 21 8 79 16 129 18 64 3 99 9 117 21 18 11 47 17 87 17 37
0 80 7 108 19 26 11 78 22 117 26 38 3 77 13 86 21 9 8 36 14 65 14 29 0 64 8
84 18 19 11 57 22 84 26 27 3 60 13 72 21 12 8 41 17 63 21 23 4 51 15 63 26
14 12 33 18 53 16 l30 -3 5 -3364 c5 -3193 4 -3365 -12 -3384 -10 -11 -18 -24
-18 -29 0 -4 -7 -8 -16 -8 -15 0 -16 10 -11 74 8 108 -31 143 -76 67 -23 -38
-21 -58 4 -71 20 -11 20 -17 14 -104 -9 -112 2 -131 60 -103 19 9 35 22 35 28
0 6 5 9 11 7 21 -7 12 -369 -10 -393 -41 -46 -25 -93 28 -80 63 15 64 16 60
380 -1 182 -2 1836 -1 3678 l2 3347 30 0 c17 0 47 9 67 20 21 11 50 20 64 20
15 0 32 6 38 14 6 7 33 16 60 20 27 3 54 13 60 20 6 7 29 16 50 20 21 3 44 13
51 21 7 8 25 15 41 15 16 0 38 9 49 20 12 12 33 20 54 20 25 0 36 5 41 19 4
13 18 20 47 24 23 3 47 12 53 20 6 8 25 18 42 21 17 4 37 13 43 21 6 7 26 16
44 19 19 4 39 13 45 20 7 8 31 17 55 20 25 4 47 13 50 21 6 16 36 21 36 6 0
-4 -12 -20 -26 -36 -16 -18 -24 -36 -22 -54 4 -30 30 -39 50 -16 7 9 21 24 31
33 9 9 17 22 17 29 0 7 11 20 25 29 32 21 36 101 6 128 -17 16 -20 15 -49 -9
-16 -14 -37 -25 -45 -25 -22 0 -67 -21 -67 -32 0 -4 -18 -8 -39 -8 -27 0 -44
-6 -53 -18 -7 -11 -29 -22 -49 -26 -21 -3 -42 -13 -49 -21 -7 -8 -23 -15 -35
-15 -12 0 -34 -9 -48 -20 -14 -11 -34 -20 -45 -20 -10 0 -31 -9 -45 -20 -14
-11 -34 -20 -45 -20 -10 0 -30 -8 -43 -19 -13 -10 -40 -21 -60 -25 -21 -4 -42
-13 -49 -21 -7 -8 -28 -15 -46 -15 -20 0 -42 -8 -53 -19 -10 -10 -34 -22 -52
-26 -19 -4 -41 -13 -49 -20 -8 -7 -34 -16 -58 -20 -26 -4 -46 -14 -52 -26 -7
-12 -21 -19 -40 -19 l-30 0 0 1571 c0 1560 -1 1599 -31 1619 -4 3 -3690 7
-8191 8 -4501 2 -8202 5 -8225 8 -37 5 -43 3 -60 -22z"/>
<path d="M13981 10626 c-7 -8 -12 -50 -13 -96 -1 -80 -1 -81 -41 -122 -43 -44
-42 -70 1 -76 21 -3 39 -38 44 -87 3 -26 7 -30 33 -30 l30 0 3 161 c2 128 6
165 17 174 22 18 19 67 -4 80 -27 14 -56 13 -70 -4z"/>
<path d="M14618 10532 c-9 -9 -23 -22 -31 -29 -8 -7 -17 -18 -19 -24 -3 -9
-15 -6 -41 10 -45 28 -62 23 -71 -20 -3 -18 -14 -41 -23 -51 -14 -15 -14 -24
-4 -58 9 -31 9 -44 -1 -59 -21 -35 2 -46 98 -46 66 0 88 4 97 16 7 8 20 18 29
22 9 3 20 22 24 41 5 31 10 36 34 36 59 0 63 73 7 143 -33 41 -69 48 -99 19z
m68 -72 c24 0 16 -15 -26 -46 -23 -17 -43 -41 -48 -59 -7 -24 -15 -31 -47 -37
-48 -10 -56 -3 -48 45 6 36 6 37 25 20 24 -21 51 -8 56 28 4 28 41 61 60 54 8
-3 20 -5 28 -5z"/>
<path d="M16045 10512 c-11 -2 -27 -10 -35 -17 -8 -7 -26 -16 -39 -20 -13 -4
-35 -21 -50 -37 -14 -16 -34 -37 -43 -46 -24 -22 -23 -30 12 -62 19 -18 32
-41 36 -69 10 -64 53 -95 119 -87 27 3 55 12 61 21 6 8 16 15 22 15 9 0 33 22
86 80 26 28 29 77 7 99 -11 11 -23 32 -27 46 -3 14 -10 25 -14 25 -5 0 -21 11
-37 24 -29 24 -65 34 -98 28z m-25 -102 c0 -6 -7 -13 -15 -16 -8 -3 -17 -14
-20 -25 -4 -10 -13 -19 -21 -19 -19 0 -18 35 2 54 17 18 54 22 54 6z m160 -60
c0 -11 -9 -25 -20 -32 -11 -7 -20 -18 -20 -25 0 -7 -7 -13 -15 -13 -22 0 -18
28 8 60 26 34 47 38 47 10z m-112 -96 c24 -7 1 -24 -33 -24 -35 0 -51 12 -40
30 6 9 33 7 73 -6z"/>
<path d="M1208 10503 c-18 -5 -30 -39 -23 -68 7 -29 -8 -118 -20 -117 -5 0
-15 25 -20 54 -20 103 -95 103 -95 0 0 -29 -6 -49 -15 -56 -18 -13 -23 -102
-7 -118 20 -20 47 -4 50 30 4 39 23 49 59 33 20 -9 30 -9 49 4 14 9 25 11 29
5 19 -31 72 0 59 35 -4 8 -7 57 -8 108 -1 98 -6 105 -58 90z"/>
<path d="M1380 10472 c-65 -30 -78 -51 -77 -129 0 -61 3 -76 19 -84 10 -5 18
-16 18 -24 0 -26 56 -18 79 11 26 33 26 46 1 69 -13 12 -18 25 -14 37 5 16 2
18 -23 13 -25 -6 -26 -5 -10 8 9 8 17 19 17 25 0 6 9 16 21 22 40 22 11 71
-31 52z"/>
<path d="M16582 10454 c-12 -8 -41 -16 -65 -18 -51 -3 -67 -11 -67 -35 0 -10
-6 -24 -14 -30 -20 -17 -31 -88 -16 -106 7 -8 26 -15 42 -15 16 0 40 -7 53
-16 27 -17 138 -30 177 -21 38 10 66 72 43 97 -14 15 -16 29 -11 63 11 75 -78
126 -142 81z m-38 -83 c11 -17 -13 -61 -33 -61 -31 0 -35 19 -10 46 24 26 35
29 43 15z"/>
<path d="M1608 10454 c-3 -3 -2 -22 3 -42 6 -27 4 -43 -7 -60 -23 -35 -48 -24
-54 22 -6 45 -26 62 -62 53 -23 -6 -26 -12 -31 -79 -7 -100 20 -146 46 -78 13
34 32 39 40 10 8 -32 74 -28 87 6 10 25 30 25 30 -1 0 -44 86 -84 92 -43 2 18
10 22 43 22 l40 1 2 79 c3 120 -22 148 -71 78 -17 -24 -26 -51 -26 -75 0 -26
-4 -37 -15 -37 -11 0 -15 12 -15 50 0 66 -68 129 -102 94z"/>
<path d="M15143 10417 c-4 -7 -21 -18 -37 -25 -25 -11 -28 -16 -22 -44 3 -17
6 -48 6 -69 0 -72 41 -96 169 -99 223 -6 231 -6 241 10 17 26 12 143 -7 170
-26 39 -32 40 -145 34 -117 -7 -158 -1 -158 21 0 18 -36 20 -47 2z m194 -94
c3 -8 -10 -11 -42 -10 -41 2 -49 -2 -73 -31 -39 -48 -81 -26 -66 34 6 24 8 25
92 22 54 -2 87 -7 89 -15z m96 -31 c5 -39 -15 -75 -32 -57 -14 16 -20 94 -7
98 22 8 34 -5 39 -41z"/>
<path d="M1755 10210 c-30 -15 -63 -20 -130 -20 -68 -1 -100 -5 -130 -20 -35
-17 -63 -19 -232 -20 -105 0 -199 -3 -208 -6 -23 -9 -38 -53 -24 -70 16 -19
205 -19 256 0 21 8 85 17 142 20 59 4 111 12 119 19 8 7 71 16 146 22 l131 10
0 40 c0 47 -13 52 -70 25z"/>
<path d="M18387 9833 c-12 -12 -7 -56 8 -73 25 -28 31 -107 10 -130 -14 -16
-16 -23 -7 -32 7 -7 12 -20 12 -30 0 -27 -82 -26 -101 2 -10 15 -30 22 -75 26
-74 8 -104 -13 -104 -70 0 -18 -7 -47 -15 -62 -8 -16 -15 -52 -15 -81 0 -58
-15 -77 -30 -38 -13 34 -13 91 1 116 13 25 -6 89 -27 89 -8 0 -19 -12 -24 -27
-6 -16 -15 -35 -20 -43 -6 -8 -13 -23 -16 -32 -9 -25 -19 -22 -32 7 -6 14 -16
25 -21 25 -20 0 -41 -13 -41 -25 0 -7 -7 -15 -15 -19 -8 -3 -15 -11 -15 -18 0
-19 -65 -68 -89 -68 -19 0 -21 6 -21 69 0 66 -2 71 -30 91 -39 27 -140 12
-140 -21 0 -6 -11 -24 -25 -41 -17 -21 -25 -41 -25 -69 0 -22 -6 -50 -14 -62
-20 -31 -17 -234 4 -247 10 -6 15 -28 15 -69 0 -42 5 -65 18 -78 9 -11 17 -27
17 -35 0 -47 127 -67 144 -23 9 25 -4 43 -36 50 -81 18 -112 129 -58 208 17
26 36 47 41 47 5 0 9 7 9 16 0 20 54 74 73 74 8 0 17 7 21 15 6 16 46 21 46 6
0 -42 78 -42 101 0 5 10 16 19 24 19 8 0 15 6 15 14 0 8 13 21 28 29 29 14 29
14 40 -28 9 -35 40 -65 66 -65 20 0 77 74 72 94 -3 13 1 43 10 67 9 24 20 62
23 84 l6 40 45 -3 c26 -2 48 -9 53 -17 6 -11 27 -15 80 -15 82 0 93 5 102 43
12 47 26 18 19 -41 -5 -52 -4 -59 20 -85 14 -15 26 -32 26 -38 0 -12 57 -12
65 1 11 17 -14 130 -34 157 -30 38 -28 71 7 79 69 17 59 54 -15 54 -32 0 -45
4 -50 18 -3 9 -11 24 -18 32 -7 8 -15 33 -18 55 -8 52 -62 87 -90 58z m-693
-389 c12 -32 6 -104 -9 -110 -8 -3 -17 -16 -21 -27 -9 -31 -54 -77 -75 -77
-26 0 -29 12 -14 56 8 21 14 55 15 74 0 64 85 133 104 84z m246 -52 c0 -10
-13 -28 -30 -40 -37 -28 -42 -7 -7 32 26 30 37 33 37 8z"/>
<path d="M22255 9683 c-4 -16 -11 -46 -17 -68 -7 -22 -13 -103 -15 -180 -4
-150 -12 -176 -37 -126 -20 37 -19 37 -56 9 -18 -13 -30 -31 -30 -44 0 -13 -8
-31 -19 -41 -23 -22 -34 -94 -25 -162 6 -50 7 -51 41 -51 36 0 93 35 93 57 0
7 9 17 20 23 14 8 20 21 20 45 l0 35 79 0 c80 0 123 19 154 67 12 19 35 16 47
-7 9 -17 21 -20 78 -20 56 0 69 3 80 20 7 11 19 20 26 20 8 0 18 10 21 21 7
21 11 22 101 16 82 -6 94 -4 99 11 3 9 20 26 38 37 18 12 37 34 43 53 5 17 15
37 22 44 39 39 -12 158 -67 158 -15 0 -31 8 -39 20 -16 26 -109 29 -119 4 -3
-8 -16 -20 -30 -25 -13 -5 -27 -17 -30 -26 -4 -10 -13 -24 -20 -31 -16 -16
-17 -29 -3 -37 13 -8 13 -67 1 -97 -5 -13 -12 -34 -15 -48 -3 -14 -24 -40 -47
-59 -39 -32 -43 -33 -80 -22 -50 15 -59 33 -47 101 21 129 22 128 -1 135 -54
17 -71 -16 -71 -137 0 -87 -98 -178 -144 -133 -12 12 -13 22 -6 41 6 14 10 57
10 96 0 48 5 77 14 87 9 11 15 45 17 101 4 97 -14 140 -57 140 -18 0 -25 -7
-29 -27z m625 -124 c0 -5 14 -15 30 -21 43 -14 54 -40 35 -77 -8 -17 -15 -35
-15 -42 0 -22 -49 -57 -89 -64 -52 -9 -58 4 -41 87 8 43 8 64 1 71 -8 8 -5 18
11 34 22 23 68 32 68 12z m-692 -323 c12 -28 -4 -72 -41 -114 -42 -46 -51 26
-11 94 30 51 37 53 52 20z"/>
<path d="M21781 9386 c-13 -16 -6 -42 15 -50 25 -9 15 -26 -15 -26 -41 0 -43
-7 -43 -131 1 -100 -10 -146 -24 -102 -3 10 -10 25 -15 33 -5 8 -15 26 -21 40
-7 14 -19 33 -28 42 -8 9 -21 24 -28 33 -22 26 -86 16 -90 -13 -5 -34 24 -74
48 -67 13 4 22 -1 31 -17 7 -13 20 -29 31 -36 10 -7 18 -24 18 -38 0 -13 6
-27 14 -30 8 -3 18 -20 22 -37 8 -38 59 -91 79 -83 17 6 16 1 18 178 1 77 6
128 12 128 6 0 12 -12 13 -27 2 -15 12 -38 23 -51 14 -18 19 -41 19 -83 0 -57
1 -58 36 -75 35 -17 37 -17 51 2 17 23 9 62 -18 87 -10 10 -19 29 -19 43 0 14
-9 37 -20 51 -29 37 -26 69 6 77 23 6 25 10 19 39 -20 93 -97 158 -134 113z"/>
<path d="M18127 9147 c-18 -20 -24 -34 -18 -40 12 -12 83 52 75 65 -9 15 -29
6 -57 -25z"/>
<path d="M20232 9032 c-15 -10 -26 -73 -15 -87 11 -13 91 -76 125 -98 27 -17
28 -17 44 8 19 30 12 55 -15 55 -11 0 -34 14 -51 30 l-31 30 31 0 c29 0 31 2
28 33 -3 31 -5 32 -53 35 -27 1 -56 -2 -63 -6z"/>
<path d="M18514 9015 c-4 -8 -14 -15 -23 -15 -10 0 -35 -20 -57 -45 -21 -24
-45 -45 -51 -45 -8 0 -13 -14 -13 -35 0 -22 -6 -38 -15 -41 -10 -4 -15 -21
-15 -54 0 -58 -12 -69 -34 -34 -30 45 -58 50 -94 16 -18 -17 -32 -36 -32 -44
-1 -7 -9 -31 -20 -53 -22 -45 -28 -182 -10 -216 13 -24 52 -25 86 -3 22 15 44
16 168 10 148 -7 196 0 196 29 0 17 -38 35 -76 35 -33 0 -100 61 -91 83 5 13
19 17 56 17 40 0 51 4 56 19 3 10 15 21 25 24 24 6 26 35 4 44 -9 3 -29 -2
-45 -11 -17 -10 -54 -20 -83 -23 l-54 -6 0 66 c0 46 4 69 14 78 8 7 21 26 29
43 45 104 100 109 100 11 0 -77 7 -95 34 -95 19 0 31 35 31 90 0 15 7 33 15
40 42 35 -4 130 -62 130 -21 0 -36 -6 -39 -15z m-214 -353 c0 -35 -52 -113
-69 -103 -10 6 -10 18 -1 50 6 23 8 46 5 52 -4 5 -4 21 -1 35 9 36 66 7 66
-34z m94 -106 c38 -35 33 -46 -23 -46 -53 0 -69 16 -51 51 14 26 44 24 74 -5z"/>
<path d="M20967 8996 c-12 -13 -32 -26 -44 -30 -11 -4 -28 -17 -36 -30 -14
-20 -77 -86 -117 -121 -14 -13 -45 -18 -84 -16 -16 1 -18 9 -15 79 l4 77 -30
0 c-22 0 -31 -5 -33 -20 -2 -11 -10 -27 -17 -35 -22 -25 -18 -108 5 -120 11
-6 20 -17 20 -24 0 -33 138 -38 170 -6 11 11 24 20 28 20 5 0 29 21 53 46 24
26 54 57 67 69 12 12 22 30 22 40 0 10 11 33 25 51 38 50 24 65 -18 20z"/>
<path d="M23085 8843 c-74 -16 -96 -175 -25 -189 16 -4 32 -15 35 -25 4 -13
16 -19 37 -19 l30 0 -6 53 c-9 77 -9 79 0 121 6 32 4 41 -11 52 -19 14 -24 15
-60 7z"/>
<path d="M20111 8802 c-5 -9 -10 -66 -10 -125 -1 -104 -2 -110 -29 -136 l-27
-28 -28 30 c-26 28 -27 33 -21 92 8 79 0 115 -26 115 -25 0 -40 -29 -40 -79 0
-40 -1 -41 -35 -41 -42 0 -49 -29 -13 -54 l22 -16 -22 -20 c-15 -15 -22 -32
-22 -60 0 -54 -43 -78 -83 -46 -25 20 -26 26 -29 131 l-3 110 -28 3 c-50 6
-57 -9 -57 -129 0 -105 -1 -108 -30 -140 l-29 -33 -12 30 c-6 16 -12 78 -13
139 -1 106 -2 110 -26 122 -48 24 -53 3 -51 -179 l2 -163 -30 -27 c-44 -42
-106 -35 -116 12 -3 16 -15 38 -26 51 -14 16 -19 37 -19 78 -1 31 -7 67 -15
81 -8 14 -14 50 -15 81 0 66 -17 95 -48 85 -51 -16 -52 -23 -52 -251 0 -194
-7 -254 -24 -209 -3 9 -6 64 -6 123 0 116 -13 158 -39 127 -16 -19 -25 -314
-11 -352 15 -39 88 -35 96 6 4 16 13 35 20 41 11 9 14 42 14 135 0 67 4 125 9
128 10 6 21 -26 21 -62 0 -12 6 -25 14 -28 8 -3 18 -20 22 -37 3 -18 15 -40
25 -50 11 -10 19 -24 19 -32 0 -9 10 -15 25 -15 14 0 34 -5 44 -12 37 -23 141
64 141 118 0 18 24 18 39 0 18 -21 79 19 87 57 10 44 64 62 64 21 0 -22 40
-53 69 -54 35 0 96 70 107 123 11 52 39 60 75 23 62 -65 154 3 160 119 4 77 5
78 37 57 53 -34 72 -59 72 -91 0 -38 18 -47 69 -35 43 11 52 40 26 81 -22 33
-4 73 32 73 20 0 23 -5 23 -37 0 -94 9 -114 49 -111 42 4 43 10 18 122 -22 97
-52 127 -102 103 -19 -9 -35 -20 -35 -25 0 -14 -56 -72 -69 -72 -23 0 -81 66
-81 93 0 44 -60 74 -79 39z"/>
<path d="M22660 8650 c-6 -10 -13 -47 -17 -80 -4 -40 -11 -64 -20 -67 -9 -4
-12 -14 -9 -28 3 -12 7 -96 8 -186 l2 -165 -27 -26 c-15 -15 -27 -31 -27 -36
0 -17 -81 -75 -91 -65 -6 6 -2 16 11 28 11 10 20 24 20 30 0 7 7 19 16 26 9 7
20 22 25 34 5 11 15 28 21 38 15 22 -11 47 -47 47 -26 0 -105 -99 -105 -132 0
-32 -48 -78 -82 -78 -27 0 -28 2 -28 45 0 32 6 51 20 65 25 25 25 31 -1 64
-23 29 -50 34 -70 10 -7 -9 -21 -13 -33 -10 -35 9 -86 -15 -86 -40 0 -12 -9
-33 -20 -47 -15 -18 -20 -40 -20 -80 0 -73 -6 -87 -40 -87 -59 0 -78 31 -45
74 8 11 15 32 15 46 0 14 5 31 11 37 11 11 -6 97 -24 121 -16 21 -65 15 -78
-10 -7 -13 -18 -27 -25 -31 -24 -14 -18 -120 7 -143 25 -22 21 -104 -5 -133
-8 -9 -17 -28 -21 -43 -14 -54 -105 -46 -105 10 0 14 -8 34 -17 44 -14 15 -17
44 -19 166 -2 101 -8 158 -18 182 -8 19 -17 47 -20 61 -3 15 -12 29 -21 32
-46 18 -66 -112 -23 -155 21 -21 23 -32 24 -166 1 -117 4 -146 18 -161 9 -9
16 -25 16 -34 0 -8 12 -29 26 -46 56 -67 204 -19 204 66 0 25 -1 25 85 29 108
6 123 9 142 27 11 9 23 17 26 17 4 0 16 9 27 20 18 18 32 20 137 19 65 -1 125
-1 134 0 25 2 119 98 119 121 0 39 47 49 74 15 l23 -28 37 29 c27 21 36 35 34
53 -4 36 -32 49 -57 27 -26 -24 -24 -43 -25 252 -1 204 -3 244 -16 252 -22 14
-28 12 -40 -10z m-440 -620 c0 -76 -18 -96 -39 -42 -6 15 -16 34 -23 44 -10
13 -7 21 13 42 40 42 49 34 49 -44z"/>
<path d="M4742 8566 c-23 -11 -45 -29 -48 -38 -3 -10 -12 -18 -20 -18 -8 0
-14 -6 -14 -13 0 -8 -9 -22 -20 -32 -11 -10 -20 -26 -20 -37 0 -10 -9 -26 -20
-35 -11 -10 -20 -29 -20 -44 0 -14 -8 -37 -19 -50 -29 -38 -37 -133 -13 -157
11 -11 24 -32 29 -47 25 -76 261 -119 351 -65 18 11 40 20 48 20 18 0 76 45
179 138 14 12 11 35 -8 60 -19 25 -28 19 -168 -113 -9 -8 -25 -15 -36 -15 -11
0 -32 -9 -46 -20 -33 -26 -187 -30 -207 -5 -7 8 -17 15 -23 15 -18 0 -78 73
-75 90 2 10 19 16 58 20 68 6 190 83 190 120 0 6 9 23 20 39 29 38 25 158 -5
175 -11 6 -24 17 -28 24 -11 16 -33 13 -85 -12z m68 -110 c0 -26 -6 -48 -15
-56 -8 -7 -15 -18 -15 -24 0 -6 -14 -22 -31 -36 -17 -14 -41 -36 -54 -48 -47
-50 -88 3 -46 59 12 15 21 32 21 37 0 22 94 112 116 112 22 0 24 -4 24 -44z"/>
<path d="M23270 8522 c0 -23 30 -52 53 -52 24 0 21 15 -8 45 -31 30 -45 32
-45 7z"/>
<path d="M4350 8495 c-19 -14 -40 -25 -47 -25 -7 0 -13 -5 -13 -10 0 -6 -11
-16 -26 -22 -74 -34 -112 -170 -59 -216 14 -12 25 -26 25 -32 0 -5 10 -10 23
-10 12 0 32 -3 44 -6 l22 -6 -18 -37 c-40 -76 -121 -120 -189 -102 -32 9 -41
44 -18 70 12 13 16 44 18 123 3 101 2 107 -22 130 -14 13 -38 39 -53 57 -26
30 -30 31 -50 18 -35 -23 -88 -106 -94 -146 -3 -20 -12 -41 -19 -47 -8 -6 -17
-33 -20 -60 -4 -27 -14 -57 -22 -67 -11 -12 -17 -45 -20 -105 l-4 -88 35 -27
c39 -30 72 -35 80 -13 3 8 19 17 36 21 17 4 31 13 31 21 0 8 7 17 16 21 8 3
20 16 25 29 11 30 18 30 63 -1 42 -28 63 -31 90 -10 11 8 28 15 37 15 30 0
139 102 139 130 0 10 7 23 15 30 36 30 -5 100 -59 100 -36 0 -86 44 -86 75 0
14 16 34 45 55 25 19 45 37 45 41 0 4 14 10 31 14 17 4 33 13 36 21 7 19 62
18 69 -1 7 -16 71 -51 80 -42 13 13 -30 109 -53 118 -44 17 -97 10 -133 -16z
m-336 -304 l-1 -141 -40 -48 c-60 -71 -93 -71 -93 0 1 31 7 61 15 72 8 11 15
39 15 62 0 26 7 51 20 67 11 14 20 38 20 54 0 31 49 101 59 84 4 -5 6 -73 5
-150z"/>
<path d="M23230 8464 c-21 -25 13 -55 36 -32 19 18 12 48 -9 48 -8 0 -20 -7
-27 -16z"/>
<path d="M1612 8394 c-36 -25 -32 -108 7 -128 44 -23 56 -108 24 -169 -9 -18
-19 -47 -22 -66 -8 -44 -24 -49 -46 -14 -15 22 -18 52 -20 180 -3 163 -8 183
-51 183 -44 0 -53 -65 -24 -165 14 -46 24 -321 12 -329 -5 -3 -13 6 -17 22 -4
15 -15 35 -26 45 -10 10 -19 28 -19 41 0 13 -8 31 -19 40 -10 9 -18 28 -18 42
0 13 -7 32 -16 42 -8 9 -18 28 -22 42 -4 14 -13 32 -20 40 -7 8 -16 26 -20 38
-4 13 -15 32 -25 42 -10 10 -19 23 -21 29 -6 18 -80 18 -92 0 -13 -20 -3 -59
22 -88 11 -13 22 -28 24 -34 2 -6 16 -11 32 -12 23 0 30 -6 40 -34 6 -19 17
-37 23 -39 7 -2 12 -17 12 -33 0 -17 8 -36 20 -46 11 -10 20 -27 20 -39 0 -12
9 -33 20 -47 11 -14 20 -32 20 -41 0 -8 11 -27 25 -42 14 -15 25 -31 25 -35 0
-14 44 -10 65 5 12 9 21 31 24 62 6 47 7 49 41 52 41 4 80 36 80 66 0 12 4 27
9 34 11 18 21 -7 21 -53 0 -58 76 -131 143 -138 74 -8 197 6 211 24 6 8 23 20
39 26 15 7 27 17 27 23 0 5 9 10 19 10 33 0 141 100 141 131 0 10 9 23 20 29
11 6 20 21 20 35 0 13 5 36 10 51 13 32 -2 54 -36 54 -28 0 -44 -26 -44 -72 0
-22 -7 -37 -20 -46 -11 -7 -20 -17 -20 -23 0 -15 -90 -99 -106 -99 -6 0 -14
-6 -17 -14 -3 -7 -18 -17 -34 -20 -15 -4 -36 -15 -46 -24 -14 -13 -39 -17
-106 -17 -83 0 -89 1 -119 30 l-32 30 0 107 c0 90 3 110 18 125 10 10 23 30
30 46 15 35 51 51 95 43 33 -6 35 -9 40 -59 8 -77 1 -150 -17 -163 -9 -6 -16
-16 -16 -22 0 -5 -13 -15 -30 -21 -59 -20 -21 -65 44 -52 21 5 32 15 39 36 6
17 17 35 26 42 12 9 16 36 19 122 l4 112 -33 34 c-19 19 -39 35 -45 35 -7 0
-14 7 -18 15 -7 19 -65 20 -72 1 -3 -8 -16 -17 -30 -20 -13 -4 -24 -13 -24
-21 0 -8 -9 -19 -20 -25 -13 -7 -20 -21 -20 -40 0 -16 -4 -31 -9 -34 -13 -9
-51 61 -51 94 0 70 -26 94 -68 64z"/>
<path d="M20022 8188 c-27 -27 -15 -166 20 -219 17 -27 37 -49 44 -49 34 0 39
69 8 115 -8 11 -14 45 -14 76 0 85 -22 113 -58 77z"/>
<path d="M20113 8153 c-7 -2 -13 -11 -13 -19 0 -9 6 -25 13 -37 6 -12 17 -44
22 -72 9 -44 14 -50 35 -50 41 0 43 122 3 159 -28 26 -37 29 -60 19z"/>
<path d="M21303 8153 c-18 -7 -16 -43 2 -63 9 -10 20 -43 25 -75 5 -31 15 -64
22 -72 6 -8 15 -42 19 -74 4 -33 14 -68 23 -78 9 -10 16 -31 16 -47 0 -43 24
-72 47 -58 24 15 25 134 1 161 -8 10 -18 40 -22 67 -3 27 -13 60 -21 72 -9 14
-15 46 -15 79 0 86 -32 115 -97 88z"/>
<path d="M20690 8003 c-85 -7 -98 -13 -109 -45 -13 -37 -3 -164 14 -193 23
-37 28 -125 9 -146 -22 -25 -54 -25 -54 -1 0 11 -9 27 -21 38 -15 13 -19 26
-15 46 4 20 0 33 -16 48 -20 18 -20 23 -9 61 19 65 -38 118 -73 68 -19 -28
-10 -116 14 -144 10 -11 21 -37 25 -57 4 -21 13 -42 21 -49 18 -15 18 -68 0
-88 -18 -20 -12 -31 35 -59 55 -33 71 -30 67 16 -3 31 0 37 17 37 19 0 20 -7
20 -145 l0 -145 33 -3 c38 -4 58 31 47 83 -15 74 -23 264 -11 283 4 6 15 12
25 12 10 0 24 6 30 14 7 8 23 17 36 20 24 6 41 38 30 56 -10 17 -51 11 -79
-11 -36 -28 -56 -19 -56 27 0 21 -6 45 -14 53 -21 24 -26 155 -6 158 30 6 43
-14 45 -69 2 -62 9 -78 34 -78 14 0 20 11 25 46 17 128 0 172 -64 167z"/>
<path d="M22985 7881 c-7 -24 4 -51 21 -51 9 0 14 12 14 35 0 38 -24 50 -35
16z"/>
<path d="M19336 7454 c-3 -9 -6 -24 -6 -34 0 -9 -7 -23 -15 -30 -10 -8 -15
-30 -15 -61 0 -38 -4 -51 -20 -59 -11 -6 -20 -21 -20 -35 0 -29 -16 -41 -24
-18 -4 9 -9 50 -13 91 -11 128 -83 176 -83 56 0 -35 -7 -73 -19 -98 -11 -23
-22 -49 -25 -59 -9 -28 -23 -12 -31 33 -6 36 -34 70 -58 70 -4 0 -15 -17 -24
-37 -13 -33 -16 -36 -28 -20 -7 9 -19 17 -27 17 -8 0 -23 7 -34 15 -25 19 -45
19 -80 0 -16 -8 -44 -15 -63 -15 -38 0 -33 4 -148 -111 l-82 -83 -11 30 c-5
16 -17 41 -25 56 -13 23 -15 63 -6 131 1 4 8 7 16 7 10 0 15 10 15 30 0 46 58
65 74 24 12 -31 46 -16 46 20 0 99 -150 97 -175 -2 -3 -13 -15 -37 -27 -52
-26 -35 -19 -171 10 -203 17 -19 18 -75 2 -91 -19 -19 -10 -36 25 -50 32 -14
35 -19 35 -54 0 -23 6 -45 15 -52 8 -7 17 -27 21 -46 3 -18 12 -38 20 -45 8
-6 14 -23 14 -38 0 -34 8 -44 48 -61 48 -19 57 -5 54 86 -1 52 -8 87 -22 114
-13 26 -20 59 -20 99 0 40 -5 65 -15 75 -22 22 -19 32 25 76 55 55 59 52 62
-52 l3 -93 49 -3 c36 -2 53 1 68 15 58 54 89 90 94 110 3 12 14 25 25 28 10 4
26 19 36 36 21 35 25 34 55 -10 41 -61 49 -62 103 -13 8 7 15 29 15 49 0 40
23 42 28 2 13 -86 132 -67 132 21 0 16 3 31 8 33 9 7 56 -34 65 -56 10 -27 30
-20 81 28 31 29 48 53 49 71 4 45 21 38 51 -21 30 -59 59 -73 70 -32 10 39 7
64 -14 90 -12 16 -20 40 -20 65 0 58 -8 72 -40 72 -34 0 -70 -40 -70 -79 0
-15 -8 -31 -20 -39 -13 -8 -20 -23 -20 -42 0 -23 -6 -33 -22 -39 -37 -14 -41
-3 -34 85 3 45 3 89 0 98 -8 21 -50 21 -58 0z m-440 -239 c9 -23 -15 -45 -50
-45 -33 0 -56 15 -56 36 0 25 97 33 106 9z m-91 -97 c32 -15 32 -28 -4 -62
-37 -35 -51 -27 -51 30 0 48 9 53 55 32z m-227 -145 c-3 -79 -20 -107 -26 -43
-2 19 -11 43 -19 53 -15 16 -14 19 8 41 37 37 40 32 37 -51z"/>
<path d="M12420 7335 c-14 -8 -36 -14 -48 -15 -40 0 -147 -94 -158 -138 -4
-12 -15 -27 -25 -33 -12 -6 -19 -21 -19 -41 0 -17 -7 -36 -16 -43 -21 -15 -37
-179 -28 -273 6 -56 4 -65 -15 -83 -11 -11 -21 -28 -21 -39 0 -24 63 -88 95
-96 13 -3 29 -12 36 -20 6 -7 27 -16 48 -20 75 -12 74 -11 69 -70 -3 -31 -12
-62 -21 -72 -9 -10 -17 -30 -17 -45 0 -43 -52 -65 -74 -32 -22 33 -35 31 -47
-5 -6 -16 -19 -32 -30 -35 -10 -4 -19 -11 -19 -16 0 -5 -10 -14 -22 -20 -24
-10 -89 -55 -98 -67 -3 -4 -16 -13 -30 -20 -75 -37 -85 -47 -88 -90 -3 -39 -1
-42 23 -42 14 0 28 7 31 15 4 8 12 15 20 15 8 0 19 9 26 20 7 11 17 20 22 20
13 0 89 52 99 67 4 7 14 13 21 13 6 0 27 11 46 25 19 14 44 25 56 25 13 0 27
8 33 17 17 31 24 5 8 -29 -8 -18 -18 -73 -21 -122 -3 -55 -11 -95 -19 -105 -8
-9 -17 -47 -20 -85 -4 -40 -13 -76 -22 -86 -8 -9 -15 -21 -15 -27 0 -6 -9 -21
-19 -35 -11 -13 -23 -36 -26 -51 -4 -14 -13 -28 -20 -31 -8 -3 -17 -21 -20
-40 -4 -19 -13 -40 -20 -46 -8 -6 -17 -24 -20 -40 -3 -15 -15 -36 -26 -46 -10
-9 -19 -24 -19 -33 0 -9 -9 -24 -20 -34 -34 -29 -22 -127 16 -127 8 0 22 16
30 35 8 19 19 35 24 35 5 0 12 17 16 38 4 20 15 45 25 55 11 10 19 31 19 46 0
16 6 31 14 34 7 3 16 19 19 37 7 35 27 32 27 -4 0 -25 17 -46 39 -46 8 0 23
-8 33 -17 14 -13 44 -18 131 -21 87 -3 119 -9 143 -23 17 -10 41 -19 52 -19
12 0 26 -9 32 -20 13 -24 52 -26 74 -4 32 31 -16 94 -72 94 -19 0 -45 9 -59
20 -22 17 -41 20 -129 20 -80 0 -112 4 -149 20 l-48 20 7 63 c4 34 13 69 21
77 7 8 16 26 20 40 4 14 14 33 22 42 11 12 13 28 9 55 -8 52 -8 52 3 103 6 25
10 74 11 110 0 37 4 70 10 76 5 5 13 27 17 49 11 51 40 60 146 43 71 -11 82
-16 118 -51 21 -22 39 -43 39 -47 0 -4 9 -15 20 -25 13 -12 20 -33 22 -69 3
-45 6 -51 26 -54 85 -12 61 135 -38 233 -63 62 -74 68 -121 73 -27 2 -54 11
-60 18 -16 19 -93 18 -109 -1 -7 -8 -16 -15 -21 -15 -14 0 -10 36 5 49 7 6 16
33 18 60 4 42 11 56 47 90 32 31 40 45 36 63 -4 18 2 29 25 48 81 65 180 177
180 204 0 4 9 19 20 33 12 16 20 41 20 66 0 24 7 48 17 59 21 23 20 100 -1
133 -9 13 -16 33 -16 44 0 11 -8 25 -19 30 -10 6 -22 21 -25 33 -9 31 -90 88
-124 88 -16 0 -37 7 -48 15 -24 18 -52 18 -84 0z m190 -134 l45 -46 -2 -113
c-1 -84 -5 -118 -16 -130 -8 -9 -18 -28 -22 -41 -10 -34 -48 -87 -100 -140
-39 -40 -129 -101 -149 -101 -13 0 -29 -7 -36 -15 -23 -28 -57 -17 -97 32
l-38 46 3 156 c2 123 5 158 17 167 8 6 17 30 21 53 4 24 13 45 20 48 8 3 14
11 14 19 0 29 93 112 130 116 109 11 163 -2 210 -51z"/>
<path d="M4146 6935 c-13 -14 -28 -25 -34 -25 -11 0 -22 -23 -22 -49 0 -9 -10
-25 -22 -35 -21 -18 -21 -22 -15 -246 4 -146 11 -237 19 -254 9 -21 9 -32 0
-47 -17 -27 -14 -60 8 -89 11 -14 20 -28 20 -32 0 -20 63 -96 82 -102 68 -18
134 -3 146 34 14 40 -23 69 -54 41 -23 -21 -59 -20 -86 4 -36 31 -35 45 1 45
16 0 34 6 40 14 7 8 28 17 49 21 20 4 44 12 52 20 8 7 31 15 51 19 21 4 42 13
49 21 14 17 150 22 150 5 0 -5 15 -17 33 -26 17 -9 34 -20 37 -24 3 -5 12 -9
20 -10 87 -13 30 81 -80 130 -40 18 -179 9 -195 -13 -7 -10 -30 -21 -51 -24
-22 -3 -43 -11 -49 -18 -5 -6 -23 -15 -40 -19 -16 -4 -40 -17 -52 -28 -13 -12
-29 -18 -39 -14 -21 8 -15 88 10 115 9 10 16 25 16 34 0 10 9 25 20 34 11 10
20 28 20 40 0 13 9 31 20 40 11 10 20 28 20 40 0 13 10 33 21 44 14 14 23 39
26 68 3 25 12 65 20 88 14 39 14 45 -1 67 -9 14 -16 40 -16 58 0 81 -120 131
-174 73z m102 -75 c18 -35 9 -216 -13 -239 -8 -10 -18 -32 -21 -49 -4 -17 -13
-37 -20 -43 -8 -6 -14 -19 -14 -29 0 -9 -8 -28 -19 -41 -10 -13 -20 -32 -22
-42 -2 -10 -8 -18 -14 -17 -6 0 -9 70 -6 197 4 210 3 206 60 276 20 24 52 18
69 -13z"/>
<path d="M3891 6873 c-12 -5 -24 -14 -72 -58 -9 -8 -20 -15 -24 -15 -14 0 -87
-52 -123 -87 -18 -18 -36 -33 -41 -33 -10 0 -47 -31 -119 -101 l-58 -56 23
-16 c30 -23 70 -22 78 2 3 10 25 37 48 60 l42 42 7 -71 c3 -39 13 -79 21 -88
8 -9 17 -36 20 -60 3 -24 12 -51 21 -61 9 -10 16 -33 16 -53 0 -20 9 -46 20
-61 11 -14 20 -39 20 -57 0 -83 126 -200 169 -157 25 25 13 66 -21 72 -41 8
-78 61 -78 111 0 21 -8 42 -20 54 -13 13 -20 33 -20 59 0 22 -8 48 -19 62 -10
13 -21 43 -24 67 -3 24 -12 51 -21 61 -11 12 -16 36 -16 72 0 30 -5 60 -12 67
-8 8 -8 15 2 27 14 17 158 115 169 115 23 0 84 72 74 88 -11 18 -39 25 -62 15z"/>
<path d="M21075 6801 c-3 -6 -20 -11 -36 -11 -33 0 -51 -26 -28 -41 25 -16 59
-11 59 9 0 10 5 23 12 30 6 6 9 14 6 17 -3 4 -9 2 -13 -4z"/>
<path d="M1976 6738 c-11 -42 -6 -67 14 -78 13 -7 20 -21 20 -39 0 -16 9 -40
20 -54 11 -14 20 -38 20 -55 0 -16 9 -41 20 -55 24 -30 28 -105 6 -113 -8 -3
-17 -20 -20 -39 -4 -18 -13 -36 -21 -39 -8 -3 -17 -22 -21 -43 -4 -21 -16 -49
-26 -63 -19 -27 -28 -134 -15 -175 12 -37 63 -58 121 -51 28 3 65 2 81 -2 l30
-8 5 -175 5 -174 30 0 30 0 -1 196 -1 197 58 6 c31 4 63 13 69 21 9 11 36 15
107 15 l94 0 49 -50 c28 -27 50 -55 50 -63 0 -27 26 -39 44 -22 23 23 21 72
-4 85 -11 6 -20 17 -20 25 0 7 -21 31 -47 52 l-46 38 -123 0 c-102 0 -125 -3
-141 -17 -11 -10 -41 -21 -67 -24 -59 -8 -66 0 -66 76 0 31 -6 64 -14 75 -7
11 -17 48 -21 82 -4 34 -13 67 -21 74 -18 15 -18 43 1 59 8 7 15 18 15 25 0 7
11 24 25 39 14 15 25 33 25 39 0 7 8 20 18 29 9 9 29 30 44 47 15 17 32 31 37
31 18 0 30 33 20 52 -14 27 -47 22 -80 -11 -16 -16 -29 -32 -29 -35 0 -3 -16
-21 -35 -40 -19 -20 -35 -40 -35 -45 0 -14 -29 -41 -44 -41 -8 0 -16 19 -20
49 -3 27 -13 54 -21 61 -9 7 -15 30 -15 55 0 72 -88 142 -104 83z m164 -506
c0 -38 6 -66 17 -82 11 -16 17 -45 17 -89 l1 -66 -60 0 c-33 0 -66 4 -72 8
-16 12 -6 115 13 138 8 8 14 24 14 35 0 10 7 30 15 44 8 14 19 35 24 48 18 39
31 24 31 -36z"/>
<path d="M4774 6743 c-11 -10 -31 -24 -46 -31 -16 -6 -28 -16 -28 -20 0 -5
-11 -21 -25 -36 -14 -15 -25 -38 -25 -51 0 -13 -7 -30 -15 -39 -9 -9 -15 -33
-15 -61 0 -31 5 -47 15 -51 8 -4 15 -14 15 -24 0 -24 70 -105 135 -155 14 -11
34 -36 45 -56 43 -82 119 -112 173 -69 14 11 33 20 43 20 21 0 89 45 121 80
64 71 73 82 73 97 0 9 8 21 17 28 39 29 34 227 -6 253 -11 8 -21 21 -21 28 0
8 -13 17 -29 20 -17 4 -38 15 -47 25 -10 11 -30 19 -47 19 -17 0 -39 8 -50 18
-30 27 -257 31 -283 5z m243 -73 c21 -11 53 -20 71 -20 20 0 35 -6 38 -15 4
-8 12 -15 19 -15 6 0 24 -11 39 -25 30 -28 40 -167 12 -178 -7 -3 -16 -17 -20
-32 -6 -23 -49 -72 -117 -131 -9 -8 -26 -14 -38 -14 -12 0 -35 -7 -52 -15 -37
-19 -46 -14 -70 40 -13 30 -28 46 -47 53 -43 15 -130 108 -142 152 -16 58 6
129 55 178 l40 40 88 1 c69 1 95 -3 124 -19z"/>
<path d="M2467 6732 c-23 -26 -22 -69 3 -82 11 -6 20 -20 20 -30 0 -11 9 -29
20 -40 11 -11 20 -29 20 -40 0 -11 9 -28 20 -37 11 -10 20 -25 20 -34 0 -9 9
-28 20 -42 11 -14 20 -32 20 -41 0 -9 9 -25 20 -36 11 -11 20 -31 20 -44 0
-14 8 -31 18 -38 11 -7 22 -30 26 -50 4 -23 13 -38 21 -38 10 0 15 -10 15 -30
0 -16 8 -38 19 -49 10 -10 21 -34 25 -53 8 -46 60 -97 84 -82 25 16 26 50 3
71 -12 9 -21 28 -21 40 0 13 -9 31 -20 40 -11 10 -20 30 -20 45 0 16 -9 37
-20 48 -11 11 -20 28 -20 39 0 10 -8 29 -19 42 -10 13 -22 39 -26 57 -4 18
-13 36 -20 38 -7 3 -16 20 -19 39 -4 18 -13 35 -20 38 -8 3 -17 19 -21 36 -3
16 -13 35 -21 42 -8 6 -14 20 -14 30 0 10 -10 25 -21 33 -18 12 -21 21 -16 52
7 40 -5 64 -31 64 -8 0 -23 7 -32 15 -15 14 -18 13 -33 -3z"/>
<path d="M3017 6743 c-15 -15 -7 -80 13 -98 11 -10 20 -31 20 -47 0 -15 8 -36
19 -47 14 -14 19 -38 23 -117 3 -64 11 -110 21 -131 14 -27 17 -65 17 -231 0
-141 3 -201 12 -210 16 -16 45 -15 55 2 7 12 91 82 162 134 80 58 97 92 58
116 -15 9 -22 7 -36 -10 -9 -12 -26 -24 -37 -28 -10 -3 -39 -24 -63 -46 -25
-22 -48 -40 -53 -40 -4 0 -8 -7 -8 -15 0 -8 -6 -15 -12 -15 -10 0 -13 45 -13
193 0 158 -3 200 -17 232 -9 22 -19 75 -21 119 -3 59 -8 81 -21 88 -10 6 -16
22 -16 47 0 64 -71 136 -103 104z"/>
<path d="M20624 6696 c-6 -15 40 -121 56 -131 4 -3 11 -16 14 -30 9 -36 86
-112 121 -119 60 -13 122 55 124 137 1 15 -3 27 -8 27 -5 0 -12 12 -16 27 -21
86 -125 31 -125 -66 0 -32 -34 -24 -38 9 -2 14 -12 33 -23 43 -23 22 -24 54
-2 79 21 23 19 24 -45 32 -42 5 -54 4 -58 -8z"/>
<path d="M20540 6644 c-15 -39 -12 -63 10 -76 13 -8 20 -24 20 -44 0 -38 19
-94 31 -94 5 0 9 -15 9 -34 0 -55 8 -66 50 -66 55 0 71 24 37 56 -15 14 -27
34 -27 46 0 12 -7 29 -15 38 -9 10 -19 39 -24 66 -7 50 -53 134 -71 134 -6 0
-15 -12 -20 -26z"/>
<path d="M20144 6623 c-20 -21 -14 -95 10 -122 9 -10 16 -24 16 -33 0 -8 9
-27 20 -41 11 -14 20 -35 20 -46 0 -12 9 -29 20 -38 11 -10 20 -27 20 -40 0
-79 79 -131 110 -73 8 14 4 25 -14 47 -13 15 -27 43 -31 61 -4 18 -13 36 -20
38 -7 3 -16 20 -19 39 -4 18 -13 38 -21 45 -8 7 -15 22 -15 34 0 12 -7 31 -15
42 -8 10 -19 35 -25 55 -12 43 -33 55 -56 32z"/>
<path d="M20387 6513 c-12 -11 -8 -40 8 -53 8 -7 15 -23 15 -35 0 -19 16 -35
35 -35 35 0 43 67 10 82 -13 6 -27 19 -30 30 -6 18 -26 24 -38 11z"/>
<path d="M19227 6273 c-4 -3 -7 -34 -7 -68 0 -73 -3 -77 -38 -59 -72 37 -172
-13 -172 -86 0 -17 -7 -38 -15 -46 -19 -20 -19 -63 0 -83 8 -9 27 -31 41 -48
14 -18 34 -33 44 -33 10 0 32 -8 48 -17 28 -16 30 -16 57 5 15 12 33 22 40 22
26 0 48 40 47 83 -2 54 3 60 60 79 44 14 49 14 79 -4 55 -33 79 5 44 72 -9 16
-12 41 -9 57 11 55 -56 82 -72 30 -11 -40 -46 -107 -55 -107 -30 0 -51 137
-24 160 21 17 19 25 -10 38 -29 13 -49 15 -58 5z m-39 -201 c30 -27 32 -33 30
-88 -3 -69 -7 -74 -73 -74 -62 0 -118 48 -90 77 8 8 15 19 15 24 0 5 11 14 25
19 23 9 24 12 13 30 -28 45 33 53 80 12z"/>
<path d="M19675 6255 c-16 -9 -39 -25 -50 -36 -12 -10 -35 -22 -53 -25 -25 -5
-32 -12 -32 -29 0 -40 83 -50 115 -15 11 12 31 20 52 20 27 0 35 5 44 27 24
63 -13 91 -76 58z"/>
<path d="M18537 6103 c-14 -13 -7 -120 8 -133 8 -7 20 -30 27 -51 6 -22 17
-44 25 -50 7 -6 13 -19 13 -29 0 -9 8 -28 19 -41 10 -13 21 -41 25 -61 10 -55
55 -120 81 -116 29 4 34 71 7 107 -11 15 -23 41 -26 58 -4 17 -14 37 -22 44
-8 6 -14 21 -14 33 0 11 -7 32 -15 46 -7 14 -20 39 -28 56 -8 17 -20 35 -26
38 -6 4 -11 22 -11 41 0 57 -34 88 -63 58z"/>
<path d="M18861 5884 c-18 -66 31 -98 85 -53 17 14 -1 65 -24 72 -9 3 -25 8
-34 12 -13 5 -19 -1 -27 -31z"/>
<path d="M9664 2385 c-19 -46 -10 -287 12 -322 16 -26 19 -63 4 -63 -5 0 -13
7 -18 17 -14 23 -39 10 -47 -25 -3 -17 -13 -33 -21 -36 -22 -8 -20 -171 2
-180 38 -15 74 -6 84 19 5 14 14 25 20 25 5 0 10 12 10 28 0 54 15 58 58 12
70 -71 127 -37 92 55 l-11 28 -22 -21 -23 -21 -27 35 -28 34 2 161 c1 131 -1
162 -13 172 -8 7 -21 33 -28 60 -17 62 -27 67 -46 22z m-4 -517 c0 -18 -5 -28
-15 -28 -15 0 -22 60 -8 73 10 11 23 -14 23 -45z"/>
<path d="M10223 2376 c-11 -13 -27 -26 -34 -28 -10 -3 -12 -35 -10 -137 2
-126 1 -135 -20 -157 -48 -52 -55 -37 -51 114 3 136 3 137 -23 165 -71 75
-138 -7 -85 -106 16 -30 21 -62 25 -153 3 -85 8 -119 18 -127 15 -12 27 -57
30 -115 2 -36 27 -62 59 -62 27 0 25 80 -2 105 -20 18 -28 65 -12 65 5 0 19 9
32 20 13 11 29 20 37 20 20 0 72 -62 73 -85 1 -59 96 -108 135 -69 40 41 -27
164 -89 164 -44 0 -53 75 -12 102 6 4 21 8 34 8 13 0 22 6 22 15 0 9 13 18 31
22 38 7 49 31 24 49 -22 16 -53 9 -78 -17 -10 -11 -24 -19 -32 -19 -8 0 -20
-9 -27 -20 -29 -45 -39 -24 -36 75 2 55 7 95 13 95 6 0 10 -13 11 -28 1 -53
45 -76 58 -29 17 64 7 117 -26 137 -41 25 -40 25 -65 -4z"/>
<path d="M11385 2346 c-13 -9 -16 -20 -12 -38 5 -17 2 -30 -8 -38 -10 -8 -15
-30 -15 -61 0 -53 -1 -53 -62 -50 -41 3 -78 -13 -78 -33 0 -8 -6 -19 -14 -25
-8 -6 -17 -31 -20 -54 -5 -32 -18 -56 -50 -90 -71 -78 -91 -53 -91 113 0 100
-1 105 -22 108 -30 4 -43 -46 -43 -164 l0 -92 36 -36 c41 -41 78 -47 109 -16
11 11 35 32 54 47 l33 27 18 -24 c28 -38 94 -35 127 5 15 18 27 25 29 18 3 -6
16 -23 30 -38 13 -14 24 -30 24 -34 0 -14 66 -22 94 -11 14 5 26 16 26 23 0
13 51 57 66 57 4 0 12 -8 19 -17 12 -16 16 -16 71 1 71 22 84 31 84 62 0 19 7
24 38 30 50 8 80 29 84 56 4 30 41 36 60 10 23 -32 138 -39 138 -8 0 6 9 28
20 49 21 39 36 143 25 177 -4 14 -15 20 -36 20 -28 0 -29 -2 -29 -43 0 -24 -3
-47 -7 -51 -5 -4 -13 -31 -18 -59 -15 -73 -75 -72 -75 1 0 39 -14 55 -39 47
-32 -10 -51 -34 -51 -63 0 -16 -8 -32 -20 -40 -11 -7 -20 -19 -20 -27 0 -18
-27 -20 -32 -3 -2 6 0 41 5 76 16 124 -9 148 -80 78 -57 -56 -97 -152 -87
-205 6 -27 -19 -62 -33 -47 -4 3 -6 54 -5 111 2 90 0 106 -14 112 -30 11 -44
-24 -44 -113 0 -57 -4 -85 -14 -93 -7 -6 -16 -24 -19 -39 -9 -45 -51 -61 -82
-32 -32 30 -36 127 -7 156 21 21 36 231 18 250 -18 19 -61 25 -81 10z m-67
-256 c30 -28 28 -66 -5 -96 -33 -30 -69 -9 -60 36 16 78 31 92 65 60z"/>
<path d="M9827 2143 c-24 -44 -18 -66 34 -114 54 -52 76 -60 86 -32 4 11 -1
22 -15 31 -12 8 -22 23 -22 33 0 9 -6 24 -13 31 -8 7 -19 23 -26 36 -11 21
-36 30 -44 15z"/>
<path d="M22739 2083 c-8 -9 -17 -54 -21 -102 -9 -117 -24 -190 -43 -211 -8
-9 -15 -21 -15 -26 0 -8 -26 -36 -78 -84 -13 -12 -30 -19 -38 -16 -16 6 -19
42 -4 51 32 20 1 95 -40 95 -36 0 -38 -2 -46 -85 -5 -43 -13 -74 -24 -84 -36
-35 -83 -63 -114 -68 -41 -6 -57 13 -27 33 13 9 21 26 21 42 0 16 8 32 20 40
37 23 23 76 -23 88 -34 8 -87 -41 -87 -80 0 -13 -9 -31 -20 -41 -15 -14 -20
-31 -20 -70 0 -63 -27 -95 -80 -95 l-33 0 6 73 c4 40 13 90 22 110 36 87 13
152 -40 111 -30 -23 -33 -30 -39 -105 -4 -44 -14 -105 -22 -135 -8 -30 -14
-62 -14 -70 0 -18 -38 -53 -58 -54 -12 0 -11 129 3 286 5 56 -8 79 -42 72 -16
-3 -19 -19 -25 -128 -5 -82 -12 -136 -22 -155 -9 -17 -16 -40 -16 -52 0 -14
-6 -23 -15 -23 -11 0 -15 13 -15 53 0 75 -18 97 -81 97 -32 0 -49 -4 -50 -12
-1 -26 -60 -63 -71 -45 -12 23 -60 21 -81 -3 -9 -11 -23 -20 -30 -20 -7 0 -21
-26 -32 -57 l-20 -58 -43 0 c-63 0 -91 -44 -57 -89 22 -29 2 -53 -60 -71 -30
-9 -57 -21 -60 -26 -11 -17 -62 -9 -81 12 -18 21 -18 22 0 33 64 39 103 103
77 129 -39 39 -136 -9 -143 -70 -4 -33 -31 -42 -57 -19 -11 10 -41 18 -77 20
-76 4 -174 47 -174 76 0 31 40 30 71 -1 19 -19 62 -20 92 -2 22 13 5 41 -30
48 -21 4 -43 15 -51 26 -22 31 -137 21 -146 -13 -2 -7 -8 -29 -14 -48 -10 -28
-9 -36 2 -42 8 -4 16 -18 20 -32 4 -18 15 -25 47 -30 22 -4 51 -13 64 -22 16
-11 49 -15 109 -15 47 -1 86 -4 86 -7 0 -11 -50 -62 -61 -62 -39 0 -129 -95
-129 -136 0 -61 116 -111 137 -59 2 7 20 16 39 19 29 6 84 46 84 63 0 31 56
67 108 68 64 2 160 35 174 59 5 10 22 16 43 16 65 0 105 51 105 136 0 65 11
104 32 115 31 16 43 -4 43 -70 0 -90 64 -133 130 -87 11 7 33 16 50 20 31 8
67 40 78 69 9 25 32 21 54 -9 28 -38 88 -26 108 22 8 19 20 35 27 35 7 1 43 2
80 3 65 1 67 2 106 44 38 41 40 42 103 42 64 0 66 1 120 50 57 52 64 56 74 40
10 -16 75 -12 81 5 4 8 13 15 20 15 19 0 102 77 110 102 6 20 6 20 25 -1 17
-18 48 -20 49 -2 9 119 9 355 0 371 -13 24 -33 26 -51 3z m-1001 -635 c2 -38
-1 -50 -21 -71 -78 -77 -122 10 -46 91 43 45 63 39 67 -20z m-682 -313 c9 -22
-53 -88 -95 -102 -78 -25 -96 -6 -35 37 20 14 44 32 54 41 41 38 68 47 76 24z"/>
<path d="M8024 2026 c-16 -12 -17 -18 -7 -33 42 -62 73 -145 77 -206 2 -36 11
-80 19 -98 24 -55 25 -61 18 -157 -3 -51 -3 -99 2 -107 12 -23 51 -18 77 10
13 14 28 25 33 25 14 0 67 57 67 73 0 8 9 22 20 32 27 24 30 184 4 209 -24 24
-63 20 -73 -7 -5 -13 -16 -29 -25 -36 -9 -7 -16 -24 -16 -37 0 -33 -28 -31
-41 4 -6 15 -16 68 -21 117 -6 50 -16 97 -24 106 -8 8 -14 32 -14 52 0 59 -50
87 -96 53z m276 -381 c0 -59 -8 -70 -46 -61 -28 7 -33 46 -8 67 9 7 20 24 25
37 14 37 29 15 29 -43z"/>
<path d="M9907 1943 c-10 -10 -8 -61 2 -68 5 -3 15 -22 22 -43 26 -80 77 -123
99 -82 29 55 -84 233 -123 193z"/>
<path d="M8478 1869 c-10 -5 -18 -16 -18 -24 0 -8 -6 -18 -14 -22 -57 -33 -88
-262 -42 -308 53 -53 238 -4 266 71 5 12 18 28 30 34 11 6 20 17 20 25 0 8 7
18 16 23 10 6 17 24 18 48 1 49 -48 66 -60 20 -3 -13 -12 -27 -19 -29 -7 -3
-15 -17 -19 -31 -18 -71 -192 -163 -220 -117 -6 9 51 91 99 142 8 9 15 23 15
31 0 8 9 27 20 41 26 33 25 39 -7 76 -28 32 -55 38 -85 20z"/>
<path d="M10521 1803 c0 -7 -15 -26 -32 -44 -21 -21 -27 -35 -20 -42 16 -16
41 0 41 27 0 13 5 26 11 28 6 2 9 13 6 23 -2 11 -5 15 -6 8z"/>
<path d="M23946 1754 c-11 -11 -16 -35 -16 -77 -1 -35 -7 -73 -15 -87 -17 -31
-20 -198 -4 -233 20 -45 -22 -87 -87 -87 -57 0 -76 14 -49 34 13 9 16 20 11
42 -9 37 -65 104 -73 86 -3 -7 -16 -26 -29 -41 -28 -34 -32 -86 -9 -119 31
-43 -59 -116 -100 -82 -11 9 -13 23 -9 50 5 31 2 41 -17 59 -13 12 -31 28 -40
36 -27 26 -20 31 -154 -102 -104 -103 -141 -131 -156 -116 -7 7 -7 17 2 31 10
16 10 23 1 35 -16 19 -8 118 12 150 7 12 16 43 19 69 4 25 18 63 32 83 l25 38
0 -45 c0 -24 -5 -49 -11 -55 -13 -13 -8 -55 7 -60 33 -11 62 41 69 123 7 92
-4 114 -54 114 -27 0 -91 -58 -91 -82 0 -5 -9 -21 -20 -35 -13 -17 -20 -41
-20 -68 0 -29 -6 -47 -20 -60 -22 -20 -20 -217 2 -258 11 -21 -13 -67 -36 -67
-8 0 -16 -7 -20 -15 -3 -8 -17 -15 -31 -15 -28 0 -98 -66 -88 -83 17 -28 93
-30 93 -2 0 8 10 17 23 21 12 4 28 15 35 25 18 26 41 24 52 -5 5 -13 14 -27
19 -31 6 -3 11 -16 11 -28 0 -12 12 -44 25 -72 14 -27 25 -55 25 -60 0 -22 92
-115 113 -115 38 0 97 20 97 34 0 13 -61 46 -85 46 -8 0 -19 9 -25 21 -7 11
-20 29 -30 39 -11 11 -16 27 -13 38 3 14 -1 22 -16 27 -13 4 -23 18 -27 40 -3
18 -15 41 -25 51 -31 28 -26 94 11 129 30 29 58 14 33 -18 -7 -8 -6 -23 3 -44
16 -37 70 -47 94 -18 6 8 22 17 33 21 28 8 82 64 91 92 9 26 60 31 70 7 8 -21
33 -19 46 5 6 11 19 20 29 20 11 0 30 13 43 29 36 42 58 50 127 48 53 -1 65 2
79 20 9 12 34 25 55 28 l37 7 0 58 c0 53 -2 58 -25 64 -40 10 -34 146 6 146
18 0 19 9 19 115 0 107 -1 115 -19 115 -11 0 -27 -7 -35 -16z m-449 -545 c2
-42 -1 -46 -63 -106 -77 -74 -84 -76 -84 -23 0 34 28 95 57 122 70 67 87 68
90 7z"/>
<path d="M1456 1174 c-3 -9 -6 -25 -6 -37 0 -11 -8 -29 -17 -40 -13 -14 -18
-36 -18 -81 -1 -68 -8 -86 -35 -86 -13 0 -20 10 -25 39 -4 22 -13 45 -21 52
-8 6 -14 16 -14 22 0 27 -62 105 -88 110 -64 13 -81 -76 -20 -105 20 -10 39
-26 43 -37 3 -10 12 -22 19 -24 8 -3 17 -21 21 -39 4 -18 16 -44 26 -57 11
-13 19 -34 19 -46 0 -12 7 -28 15 -35 19 -16 19 -69 0 -94 -27 -35 -5 -81 46
-98 6 -2 13 -35 15 -73 5 -81 10 -88 55 -83 34 3 34 3 34 53 0 28 -3 66 -7 86
-9 54 50 94 135 91 93 -3 140 30 86 59 -32 17 -153 7 -177 -14 -25 -23 -32
-21 -32 6 0 38 -23 63 -39 43 -21 -25 -28 -19 -35 29 -6 37 -4 50 12 70 13 16
22 49 27 92 4 42 14 77 26 92 21 27 25 91 7 109 -17 17 -45 15 -52 -4z"/>
<path d="M15883 1168 c-13 -6 -24 -24 -28 -46 -4 -20 -13 -45 -21 -56 -8 -11
-14 -34 -14 -51 0 -38 -9 -51 -43 -64 -30 -12 -35 -38 -11 -55 11 -8 13 -20 9
-39 -10 -36 -40 -32 -40 5 -1 16 -13 38 -33 56 -37 35 -45 87 -14 96 30 10 75
63 69 80 -8 20 -51 21 -66 2 -7 -8 -42 -17 -81 -21 -39 -4 -74 -13 -81 -21 -6
-8 -20 -14 -30 -14 -29 0 -51 -28 -39 -51 15 -28 63 -25 96 6 40 37 58 29 62
-25 2 -32 9 -50 25 -62 24 -19 10 -48 -24 -48 -19 0 -30 -7 -89 -61 -35 -32
-29 -59 14 -59 12 0 29 -9 39 -20 20 -23 192 -31 199 -9 2 7 19 17 38 23 33
11 35 14 32 49 -3 35 -1 37 27 37 16 0 33 4 36 10 12 20 127 5 146 -18 18 -23
39 -29 39 -12 0 6 12 15 27 21 39 15 80 -5 88 -43 7 -32 36 -48 87 -48 32 0
138 96 138 125 0 32 36 45 125 45 69 0 93 4 107 17 16 15 23 15 54 4 48 -17
65 -2 44 37 -21 36 -85 43 -133 13 -24 -14 -53 -20 -112 -22 l-80 -2 -6 31
c-20 97 -165 136 -228 62 -27 -31 -30 -42 -31 -102 0 -69 -10 -85 -30 -48 -9
18 -21 20 -100 20 -70 0 -90 3 -90 14 0 8 7 16 15 20 29 11 20 146 -12 195
-27 42 -42 47 -80 29z m466 -174 c52 -44 39 -92 -26 -95 -47 -3 -93 22 -93 50
0 21 53 71 75 71 7 0 27 -12 44 -26z m-419 -24 c0 -6 -4 -16 -10 -23 -5 -7
-21 -27 -36 -44 -27 -34 -54 -43 -54 -19 0 15 77 96 91 96 5 0 9 -5 9 -10z
m436 -111 c7 -12 -36 -59 -54 -59 -16 0 -36 44 -29 62 6 16 73 13 83 -3z
m-663 -75 c58 -5 67 -9 67 -26 0 -19 -4 -20 -87 -13 -101 8 -97 7 -88 35 4 13
13 19 23 16 9 -3 47 -8 85 -12z"/>
<path d="M19745 1140 c-3 -11 -15 -20 -26 -20 -10 0 -19 -7 -19 -15 0 -8 -9
-24 -20 -35 -11 -11 -20 -31 -20 -45 0 -14 -9 -30 -20 -37 -21 -13 -31 -128
-11 -128 5 0 23 -13 39 -29 l31 -28 -28 -27 c-15 -14 -31 -26 -35 -26 -4 0
-19 -9 -33 -20 -45 -35 -83 -27 -83 18 0 20 7 46 15 56 21 28 21 238 1 255
-32 27 -96 -32 -80 -72 3 -9 -4 -37 -16 -63 -24 -48 -24 -144 -1 -167 29 -29
-21 -91 -74 -91 -63 0 -89 42 -90 146 0 98 -8 113 -53 103 -39 -8 -46 -28 -25
-68 22 -43 32 -280 13 -292 -22 -14 -60 40 -60 84 0 23 -8 48 -20 64 -11 14
-20 30 -20 37 0 30 -53 100 -75 100 -23 0 -55 -23 -55 -40 0 -5 -34 -6 -75 -3
-79 6 -125 -10 -125 -43 0 -8 -11 -25 -24 -38 -19 -17 -25 -32 -24 -64 0 -27
-6 -50 -17 -62 -31 -34 -24 -169 10 -213 41 -50 190 -64 226 -21 6 8 18 14 26
14 15 0 82 63 124 118 25 32 26 32 55 17 59 -30 114 0 114 63 0 61 11 68 59
41 46 -25 70 -19 129 35 20 17 34 20 87 17 54 -2 69 1 91 18 15 12 31 21 36
21 6 0 35 23 66 51 60 55 87 69 133 69 17 0 32 6 35 15 3 8 14 17 24 20 11 3
22 15 25 26 4 10 12 19 20 19 16 0 25 22 25 60 0 16 5 32 10 35 20 12 10 25
-19 25 -33 0 -61 -30 -61 -65 0 -23 -75 -89 -90 -80 -16 10 -12 27 11 51 35
37 38 124 5 159 -14 15 -26 32 -26 36 0 9 -53 39 -69 39 -5 0 -13 -9 -16 -20z
m49 -80 c31 -12 37 -77 10 -105 -9 -9 -20 -31 -23 -48 -7 -34 -37 -45 -87 -33
-31 8 -33 52 -4 89 11 14 20 30 20 35 0 10 48 72 55 72 2 0 15 -4 29 -10z
m-821 -351 c20 -13 42 -37 48 -54 7 -16 21 -38 31 -48 24 -23 23 -30 -7 -65
-14 -17 -25 -34 -25 -39 0 -11 -59 -63 -72 -63 -5 0 -25 -7 -44 -16 -45 -21
-52 -17 -102 55 -48 71 -49 74 -22 101 14 14 20 33 20 64 0 30 5 46 15 50 8 3
15 12 15 20 0 34 87 31 143 -5z"/>
<path d="M14701 1121 c-20 -13 -9 -276 13 -323 8 -18 17 -58 18 -88 3 -52 4
-55 32 -58 17 -2 39 4 55 16 17 12 51 21 99 26 99 9 163 43 148 81 -7 19 -71
20 -108 1 -70 -36 -166 -25 -110 12 12 8 22 23 22 33 0 10 8 26 19 36 10 10
21 31 25 47 4 17 15 35 23 42 11 7 17 27 17 60 1 61 -39 74 -57 19 -5 -16 -16
-37 -23 -46 -8 -8 -14 -22 -14 -30 0 -19 -53 -129 -63 -129 -4 0 -15 16 -24
36 -16 34 -16 37 0 66 21 36 21 52 2 68 -10 8 -15 30 -15 64 0 66 -21 91 -59
67z"/>
<path d="M1798 1109 c-21 -12 -23 -35 -4 -42 7 -3 16 -23 20 -45 3 -22 12 -42
20 -45 7 -3 17 -27 21 -54 4 -26 14 -56 23 -66 9 -11 17 -42 20 -80 2 -34 11
-69 19 -78 9 -11 17 -53 21 -120 7 -99 8 -104 34 -116 37 -19 56 -7 60 35 3
34 6 37 33 37 17 1 40 10 52 20 12 11 51 42 87 70 67 51 82 79 46 90 -27 9
-58 -2 -70 -26 -6 -10 -15 -19 -20 -19 -6 0 -25 -16 -44 -36 -65 -69 -83 -35
-85 169 -1 49 -6 98 -13 110 -7 12 -15 42 -18 66 -11 93 -74 73 -68 -21 4 -61
-15 -64 -22 -3 -3 25 -11 50 -18 57 -7 7 -12 23 -12 38 0 66 -32 89 -82 59z
m180 -332 c-2 -23 -7 -42 -13 -42 -12 0 -19 59 -10 94 10 40 27 2 23 -52z"/>
<path d="M2626 1104 c-9 -8 -16 -26 -16 -39 0 -12 -7 -25 -15 -29 -12 -4 -15
-29 -15 -138 0 -166 -7 -212 -29 -202 -9 4 -36 10 -60 14 -57 9 -60 17 -62
140 -3 141 -3 142 27 166 32 27 29 58 -7 62 -28 3 -182 -139 -195 -180 -12
-39 20 -56 56 -30 l30 23 0 -29 c0 -16 6 -35 14 -41 7 -6 16 -33 18 -60 8 -80
92 -153 131 -114 14 14 19 12 51 -21 45 -44 79 -54 120 -33 17 8 49 18 70 22
22 4 51 15 64 26 36 28 93 25 127 -7 65 -60 198 -8 221 86 4 14 14 33 23 44
23 27 22 134 -1 147 -10 6 -18 19 -18 30 0 10 -19 37 -41 59 -61 59 -150 60
-198 3 -17 -21 -38 -45 -46 -54 -20 -21 -19 -69 3 -85 16 -12 16 -14 -3 -27
-12 -9 -23 -36 -30 -68 -8 -41 -15 -55 -30 -58 -11 -2 -31 -12 -44 -22 -38
-30 -121 -27 -121 4 0 31 26 83 45 91 8 3 15 14 15 24 0 11 10 31 21 46 37 47
35 194 -3 235 -32 35 -76 41 -102 15z m74 -140 c0 -45 -5 -68 -19 -85 -10 -14
-21 -35 -23 -47 -8 -56 -23 -15 -23 66 0 77 3 91 24 120 31 41 41 28 41 -54z
m367 -13 c85 -71 32 -289 -66 -274 -74 12 -93 42 -66 106 8 20 15 47 15 60 0
14 -7 30 -15 37 -20 16 -19 22 5 50 11 13 20 27 20 32 0 16 85 8 107 -11z"/>
<path d="M4426 1112 c-3 -5 -8 -87 -11 -183 -5 -131 -10 -178 -21 -190 -7 -8
-14 -25 -14 -36 0 -23 -15 -32 -41 -25 -18 4 -29 43 -29 102 0 21 -7 57 -15
80 -9 26 -14 71 -13 115 3 80 -10 108 -46 103 -29 -4 -31 -249 -3 -292 10 -14
17 -43 17 -65 0 -110 135 -152 176 -55 17 41 34 36 34 -11 0 -29 4 -34 30 -40
62 -14 81 46 33 98 -28 28 -28 30 -28 155 0 70 4 141 8 158 12 46 -55 121 -77
86z"/>
<path d="M15300 1101 c-16 -31 -12 -56 15 -86 25 -26 26 -31 20 -113 -4 -48
-11 -99 -17 -114 -10 -28 22 -88 48 -88 20 0 116 101 110 117 -3 8 -6 17 -6
19 0 11 -39 2 -50 -11 -23 -28 -27 -5 -22 130 5 151 1 165 -54 165 -23 0 -37
-6 -44 -19z"/>
<path d="M13512 1071 c-28 -17 -7 -50 41 -65 15 -5 17 -19 17 -100 0 -103 -18
-156 -54 -156 -21 0 -86 58 -86 77 0 16 -42 81 -56 87 -28 11 -39 -14 -39 -90
0 -53 -4 -79 -12 -81 -7 -3 -13 2 -13 10 0 14 -21 43 -57 80 -14 14 -15 22 -6
36 14 23 -1 41 -34 41 -16 0 -27 -8 -33 -25 -12 -31 -24 -32 -44 -3 -24 33
-91 50 -132 33 -36 -15 -54 -5 -54 30 0 28 -54 80 -74 72 -23 -9 -20 -59 4
-80 11 -9 20 -29 20 -45 0 -15 7 -38 16 -50 20 -29 31 -127 15 -136 -26 -16
-141 52 -141 84 0 5 -8 16 -17 26 -14 13 -18 37 -19 108 -2 93 -13 116 -53
116 -41 -1 -45 -14 -45 -147 -1 -119 -3 -130 -23 -150 -13 -13 -23 -31 -23
-42 0 -10 -7 -24 -15 -31 -32 -27 -18 -50 29 -50 47 0 56 9 56 57 0 13 7 31
15 39 8 9 15 24 15 34 0 29 16 32 33 7 27 -41 90 -96 118 -102 15 -4 30 -13
33 -21 9 -24 37 -16 73 22 l34 36 32 -36 c76 -86 157 -44 159 82 2 102 8 102
60 2 7 -14 21 -31 30 -38 10 -7 18 -18 18 -23 0 -15 53 -58 73 -59 14 0 17 10
17 68 0 87 3 89 54 40 59 -58 71 -68 85 -68 19 0 61 31 61 45 0 7 10 25 23 41
20 25 22 42 25 155 l4 126 -28 27 c-29 26 -75 34 -102 17z m-401 -240 c30 -30
42 -116 20 -149 -16 -26 -56 -10 -59 23 -2 17 -11 38 -19 47 -8 9 -18 38 -20
63 -5 44 -5 45 21 45 17 0 39 -11 57 -29z"/>
<path d="M15065 1054 c-21 -21 -19 -69 4 -91 12 -12 20 -38 24 -77 3 -32 13
-66 21 -75 9 -10 16 -34 16 -53 0 -52 9 -68 36 -68 39 0 46 118 9 160 -7 8
-15 39 -17 68 -3 29 -12 60 -21 70 -8 9 -18 29 -22 44 -8 33 -29 42 -50 22z"/>
<path d="M4581 1031 c-14 -25 -4 -97 16 -129 9 -15 17 -62 20 -118 5 -77 9
-97 24 -104 25 -14 53 -2 38 16 -13 16 -4 48 11 39 5 -3 10 -14 10 -23 1 -37
100 -75 127 -48 4 4 7 60 5 123 -2 90 0 114 10 111 7 -3 15 -25 18 -50 3 -25
13 -53 23 -62 9 -10 17 -29 17 -43 0 -14 9 -36 20 -50 11 -14 20 -34 20 -44 0
-10 9 -23 20 -29 11 -6 20 -17 20 -25 0 -7 9 -16 19 -20 11 -3 22 -12 25 -20
3 -8 16 -15 28 -15 13 0 29 -9 36 -20 20 -32 51 -25 67 14 8 19 19 37 25 41
28 18 -10 154 -57 203 -7 7 -13 18 -13 24 0 6 -26 36 -58 67 -32 31 -71 73
-86 94 -16 20 -34 37 -41 37 -7 0 -19 7 -26 16 -15 19 -49 -13 -49 -46 0 -16
-29 -50 -43 -50 -3 0 -9 16 -13 35 -6 36 -52 52 -69 24 -8 -12 18 -71 40 -89
11 -9 15 -33 15 -91 0 -80 -13 -109 -29 -66 -5 13 -17 27 -25 30 -9 4 -16 17
-16 29 0 13 -6 32 -14 43 -7 11 -17 36 -20 55 -4 19 -13 49 -21 65 -7 17 -17
43 -22 60 -10 36 -37 44 -52 16z m519 -320 c0 -10 7 -26 15 -37 29 -39 20 -56
-27 -49 -52 8 -92 34 -96 64 -2 12 -10 25 -18 28 -7 3 -16 21 -20 41 -4 21
-15 48 -25 61 -19 24 -25 71 -11 85 10 11 182 -172 182 -193z"/>
<path d="M5999 1006 c-3 -3 -47 -7 -98 -10 -64 -2 -97 -8 -109 -19 -9 -8 -32
-17 -51 -19 -70 -6 -66 -88 4 -88 34 0 35 -1 35 -38 0 -21 6 -46 14 -57 7 -11
17 -31 21 -45 4 -13 16 -36 27 -50 16 -22 18 -40 16 -119 l-3 -93 -300 -4
c-165 -2 -325 -8 -355 -14 -31 -6 -233 -13 -460 -16 -223 -3 -439 -10 -480
-15 -41 -6 -94 -12 -116 -15 -28 -4 -50 -1 -65 9 -30 19 -232 30 -266 14 -28
-13 -29 -21 -3 -57 l20 -28 170 -4 c116 -2 173 -7 182 -16 18 -18 41 -15 61 8
9 11 25 20 36 20 10 0 34 6 52 13 26 11 119 14 384 16 193 2 409 7 480 12 72
5 218 12 325 15 107 3 237 9 288 14 101 10 313 -3 360 -22 15 -6 113 -14 217
-17 147 -6 196 -11 215 -23 58 -37 125 -30 118 12 -6 43 -72 59 -248 60 -85 0
-175 6 -200 11 -51 12 -82 15 -197 17 -97 2 -104 13 -43 58 22 16 40 35 40 42
0 7 7 15 16 19 8 3 20 16 25 29 12 33 52 32 67 0 7 -15 23 -27 44 -31 18 -4
39 -12 46 -18 16 -13 122 21 122 40 0 7 4 13 10 13 5 0 18 9 29 21 18 19 20
20 29 3 19 -35 103 -29 147 10 41 37 51 36 101 -7 52 -44 118 -29 130 29 8 43
-27 57 -55 23 l-18 -22 -19 20 c-10 11 -29 24 -41 27 -13 4 -23 15 -23 24 0 9
-7 30 -16 47 -14 27 -14 33 2 67 30 67 -15 93 -60 34 -30 -40 -33 -82 -9 -124
24 -43 -11 -82 -74 -82 l-43 0 0 39 c0 21 6 44 14 50 18 16 30 110 17 144 -22
57 -61 18 -61 -61 0 -20 -7 -46 -15 -56 -8 -11 -15 -40 -15 -65 -1 -60 -57
-101 -138 -101 -89 0 -90 55 -2 129 47 39 50 58 13 72 l-26 10 28 29 c20 21
38 30 61 30 23 0 34 5 39 19 3 11 12 22 20 25 8 3 15 15 15 26 0 22 -53 30
-65 10 -3 -5 -23 -14 -43 -20 -45 -12 -112 -71 -112 -99 0 -12 -4 -21 -9 -21
-9 0 -52 -83 -66 -129 l-7 -23 -28 31 c-28 31 -30 31 -124 31 -89 0 -122 11
-81 26 8 3 17 14 20 25 4 10 13 19 21 19 8 0 17 7 20 15 3 8 14 17 25 20 54
18 112 100 91 131 -8 13 -65 28 -73 20z m-19 -72 c0 -9 -82 -87 -113 -107 -31
-20 -44 -6 -34 35 3 12 1 30 -5 41 -7 15 -7 22 3 28 16 10 149 12 149 3z m78
-275 c3 -30 -3 -42 -30 -67 -92 -87 -118 -97 -118 -43 0 22 9 35 40 56 22 15
40 31 40 35 0 12 -27 31 -42 29 -27 -3 -38 1 -38 16 0 13 13 15 73 13 l72 -3
3 -36z"/>
<path d="M21542 988 c-18 -18 -15 -43 9 -64 15 -13 20 -28 17 -51 -4 -29 -1
-33 19 -33 20 0 23 -5 23 -39 0 -23 8 -48 20 -63 12 -15 22 -49 26 -84 4 -33
12 -66 19 -74 7 -8 15 -43 17 -78 7 -103 60 -114 138 -29 27 28 56 59 65 68 8
9 15 21 15 27 0 23 22 22 41 -2 31 -40 67 -34 117 17 23 23 42 48 42 55 0 7 7
12 15 12 11 0 15 -11 15 -39 0 -25 5 -41 14 -44 8 -3 18 -22 21 -41 4 -19 13
-40 21 -46 7 -7 16 -31 20 -55 3 -25 12 -50 20 -56 23 -19 19 -179 -6 -221
-60 -100 -159 -99 -160 3 0 14 -7 34 -15 45 -8 10 -15 38 -15 62 0 82 -39 111
-60 46 -15 -45 -7 -130 15 -154 8 -9 15 -30 15 -46 0 -113 191 -114 280 -1 35
44 43 236 12 295 -10 20 -22 49 -26 65 -3 15 -15 36 -26 47 -11 11 -20 30 -20
43 0 12 -9 28 -21 35 -16 10 -19 19 -14 42 5 22 2 31 -13 39 -16 8 -20 24 -24
76 -5 75 -18 96 -49 77 -16 -10 -22 -10 -35 3 -24 23 -53 19 -60 -10 -7 -26
-44 -34 -73 -16 -26 17 -121 -50 -121 -84 0 -7 -8 -20 -19 -29 -10 -9 -21 -30
-24 -45 -6 -31 -45 -49 -59 -28 -4 7 -8 37 -8 68 0 35 -5 61 -14 68 -7 6 -16
35 -19 63 -4 31 -13 55 -22 60 -8 5 -15 23 -15 40 0 56 -67 107 -98 76z m529
-238 c33 -18 24 -60 -24 -113 -24 -26 -47 -47 -50 -47 -14 0 -6 47 13 83 11
20 20 48 20 62 0 27 10 31 41 15z m-131 -28 c0 -9 -16 -40 -35 -67 -19 -28
-39 -61 -45 -75 -11 -25 -12 -25 -26 -5 -21 28 -10 60 38 117 41 49 68 61 68
30z"/>
<path d="M5338 973 c-9 -10 -39 -39 -66 -65 -63 -59 -90 -102 -75 -120 6 -7
14 -29 18 -48 27 -127 131 -206 189 -143 30 32 36 90 11 99 -8 4 -15 14 -15
24 0 10 7 20 15 24 19 7 20 35 1 42 -8 3 -40 -13 -72 -35 -69 -48 -74 -45 -67
34 5 57 7 62 52 95 57 43 61 48 61 83 0 32 -26 37 -52 10z m44 -304 c-4 -32
-16 -42 -41 -34 l-21 6 21 30 c24 34 45 33 41 -2z"/>
<path d="M5530 963 c-25 -9 -70 -63 -70 -85 0 -11 9 -31 20 -45 11 -14 20 -39
20 -55 0 -17 8 -41 19 -54 13 -16 19 -40 19 -75 0 -63 24 -94 65 -84 15 4 27
14 27 23 0 8 19 33 41 54 l41 39 -21 23 c-18 19 -21 35 -21 109 0 76 -2 88
-20 97 -11 6 -20 16 -20 23 0 22 -68 42 -100 30z m70 -83 c20 -20 30 -146 13
-163 -17 -18 -63 47 -63 89 0 25 -6 47 -15 54 -20 16 -19 27 3 33 33 9 42 7
62 -13z"/>
<path d="M6993 913 c-7 -2 -13 -11 -13 -18 0 -8 -9 -19 -20 -25 -11 -6 -20
-19 -20 -28 0 -32 -24 -55 -49 -47 -18 5 -21 12 -16 34 13 59 -44 67 -68 9
-17 -41 16 -95 61 -100 l27 -3 -4 -106 c-4 -135 3 -169 34 -169 33 0 37 22 34
152 -4 105 -3 111 19 126 12 8 22 22 22 31 0 9 9 30 20 46 30 45 20 120 -13
104 -1 0 -8 -3 -14 -6z"/>
<path d="M9620 884 c-6 -14 -10 -31 -10 -38 0 -8 -7 -19 -15 -26 -8 -7 -15
-25 -15 -40 0 -15 -9 -35 -20 -45 -11 -10 -20 -24 -20 -30 0 -17 -59 -60 -92
-69 -24 -5 -28 -12 -28 -40 0 -28 -5 -35 -25 -40 -21 -5 -25 -12 -25 -47 0
-74 53 -54 132 48 42 55 70 70 114 59 19 -5 24 -11 19 -23 -12 -32 26 -134 50
-131 27 4 34 94 10 141 -13 24 -18 64 -19 158 -2 69 -6 131 -10 137 -12 20
-36 13 -46 -14z"/>
<path d="M7841 867 c-11 -14 20 -116 40 -127 4 -3 11 -31 15 -62 6 -53 5 -58
-20 -81 -54 -50 -112 21 -122 149 -8 102 -11 113 -39 120 -48 12 -54 -6 -54
-150 0 -121 -9 -208 -26 -263 -7 -21 -4 -23 24 -23 40 0 63 34 61 92 -4 90 -5
90 101 -7 30 -28 99 2 99 42 0 6 7 16 15 23 21 17 22 182 1 199 -7 6 -16 29
-20 50 -7 48 -49 69 -75 38z"/>
<path d="M12010 863 c-14 -10 -41 -23 -60 -28 -28 -9 -35 -16 -35 -35 0 -24 3
-25 54 -25 38 1 57 6 65 17 9 12 31 18 71 20 61 3 84 20 72 52 -9 24 -133 23
-167 -1z"/>
<path d="M9782 828 c-21 -21 -13 -45 33 -101 25 -31 45 -65 45 -76 0 -12 9
-26 20 -33 25 -16 25 -44 0 -85 -39 -64 -90 -27 -90 65 0 47 -4 63 -21 78 -18
16 -21 27 -16 75 5 63 -2 83 -29 77 -30 -5 -33 -143 -4 -170 14 -14 20 -31 20
-65 0 -26 10 -75 21 -110 l22 -63 62 0 c43 0 66 5 75 15 7 8 18 15 25 15 7 0
29 14 50 30 45 36 53 37 64 8 32 -84 95 -96 154 -31 34 36 34 36 46 15 15 -29
66 -30 81 -2 15 28 25 25 40 -10 21 -50 76 -44 90 11 8 29 20 46 46 61 19 11
34 27 34 35 0 14 47 78 58 78 3 0 6 -11 7 -25 9 -84 127 -119 141 -42 9 45
-18 72 -46 47 -24 -22 -28 -19 -36 20 -3 19 -12 39 -19 43 -7 4 -15 18 -17 31
-10 71 -97 25 -98 -52 0 -26 -4 -37 -12 -34 -9 2 -13 26 -13 70 0 49 -4 71
-17 83 -28 28 -48 -34 -48 -144 0 -75 -3 -92 -19 -106 -31 -28 -41 -11 -41 69
0 59 -3 74 -17 79 -29 12 -38 -12 -35 -94 3 -83 -11 -103 -46 -68 -15 15 -16
84 -2 93 19 12 10 45 -15 55 -41 16 -52 4 -57 -59 -2 -36 -10 -65 -20 -75 -9
-9 -19 -25 -23 -36 -6 -20 -38 -35 -55 -25 -17 10 -11 51 10 70 l20 18 -20 22
c-11 12 -20 35 -20 53 0 26 -4 32 -22 34 -52 3 -84 -4 -97 -23 -28 -39 -81
-20 -81 30 0 9 -9 24 -20 34 -11 9 -20 26 -20 38 0 24 -47 89 -64 89 -7 0 -17
-5 -24 -12z m274 -219 c9 -14 -41 -64 -55 -55 -7 5 -4 17 11 37 23 31 33 35
44 18z"/>
<path d="M11385 810 c-55 -43 -84 -77 -91 -106 -3 -13 -13 -28 -20 -32 -15 -8
-25 -60 -25 -122 0 -38 24 -64 52 -55 11 4 27 -3 40 -16 16 -16 38 -23 84 -27
62 -4 64 -4 99 31 20 20 36 41 36 47 0 19 49 11 60 -10 20 -37 108 -28 144 15
34 40 39 41 65 18 52 -48 51 -47 90 -25 52 30 48 56 -9 62 -67 8 -70 13 -70
90 0 92 -11 120 -48 120 -15 0 -33 -5 -40 -12 -17 -17 -15 -94 3 -122 14 -21
13 -26 -15 -65 -38 -52 -53 -58 -86 -36 -28 18 -27 76 2 123 15 23 21 102 10
121 -12 19 -36 12 -46 -15 l-10 -25 -46 35 c-63 48 -123 50 -179 6z m155 -62
c33 -27 42 -96 15 -118 -8 -7 -15 -23 -15 -36 0 -13 -9 -28 -20 -34 -11 -6
-20 -17 -20 -24 0 -30 -96 -38 -107 -8 -4 9 -14 23 -22 30 -14 11 -14 13 2 23
23 14 22 35 -4 53 -29 20 -18 51 39 104 53 49 80 51 132 10z"/>
<path d="M8043 778 c-45 -51 -63 -105 -63 -189 0 -118 37 -156 131 -132 45 12
48 45 5 53 -33 6 -46 27 -22 36 9 3 16 17 16 30 0 37 40 74 54 49 6 -10 21
-29 34 -41 12 -11 22 -24 22 -27 0 -15 55 -58 80 -64 22 -4 32 0 42 16 16 26
30 27 46 1 15 -24 78 -28 107 -6 31 22 36 205 6 235 -11 11 -21 25 -21 30 0
18 -30 33 -55 27 -32 -8 -33 -35 -2 -73 28 -33 46 -158 24 -166 -24 -8 -45 5
-52 31 -4 15 -13 34 -20 42 -7 8 -15 30 -17 49 -4 45 -33 64 -54 36 -11 -15
-13 -35 -8 -82 4 -42 3 -63 -4 -63 -12 0 -52 53 -52 68 0 24 -30 41 -54 32
-30 -11 -36 -5 -36 38 0 23 -9 43 -27 63 -33 35 -53 36 -80 7z m57 -80 c0 -11
-9 -31 -20 -45 -11 -14 -20 -39 -20 -55 0 -42 -24 -30 -28 14 -2 24 5 47 24
76 28 42 44 46 44 10z"/>
<path d="M12006 728 c-22 -34 -41 -186 -27 -220 20 -53 61 -23 61 44 0 19 7
43 15 54 9 12 14 42 15 82 0 59 -1 62 -25 62 -14 0 -30 -9 -39 -22z"/>
<path d="M15828 703 c-74 -12 -6 -43 93 -43 67 0 70 1 67 23 -3 23 -81 33
-160 20z"/>
<path d="M14013 513 c-12 -2 -27 -11 -33 -19 -17 -19 -104 -18 -163 2 -42 14
-98 15 -480 10 -237 -4 -451 -6 -475 -6 -24 0 -53 -5 -64 -11 -15 -8 -109 -13
-279 -15 -215 -2 -262 -5 -295 -20 -29 -12 -84 -19 -209 -24 -114 -5 -183 -13
-210 -23 -28 -11 -75 -16 -155 -17 -79 0 -133 -5 -170 -17 -40 -12 -95 -17
-200 -18 -80 -1 -151 -5 -158 -9 -33 -20 -1 -52 68 -67 19 -5 49 -11 65 -15
17 -4 40 -16 53 -27 29 -27 51 -10 34 27 -14 32 -8 36 52 36 32 0 65 7 89 20
32 17 56 20 188 20 128 0 156 3 194 20 38 17 64 20 212 19 131 0 176 3 205 15
29 12 90 17 275 21 131 3 274 8 318 11 44 4 107 8 140 10 107 6 609 6 645 1
86 -14 295 -28 324 -23 62 13 112 84 70 100 -9 3 -16 5 -17 5 -1 -1 -12 -4
-24 -6z"/>
<path d="M20711 416 c-15 -18 -3 -48 18 -44 21 4 27 44 7 51 -8 3 -19 0 -25
-7z"/>
<path d="M18283 410 c-12 -5 -24 -18 -28 -29 -3 -12 -10 -21 -15 -21 -5 0 -21
-13 -37 -30 -73 -77 -97 -100 -170 -167 -44 -40 -101 -87 -128 -106 -66 -45
-68 -57 -8 -57 55 0 60 3 199 135 46 44 90 85 97 90 6 6 39 34 72 63 33 28 68
59 78 67 9 8 17 26 17 40 0 27 -31 33 -77 15z"/>
<path d="M20363 362 c-41 -13 -63 -55 -63 -121 0 -34 -3 -61 -7 -61 -18 1 -38
21 -52 52 -11 21 -23 33 -36 33 -18 0 -20 -8 -23 -91 -3 -101 -5 -104 -79
-104 -25 0 -33 4 -33 18 0 9 -7 26 -15 36 -8 11 -15 34 -15 51 0 95 -64 83
-66 -12 -1 -38 -7 -69 -18 -84 -26 -38 -21 -79 9 -79 22 0 25 4 25 35 0 41 12
44 52 10 51 -43 126 -36 164 15 36 49 38 49 103 0 60 -45 78 -48 114 -20 14
11 36 20 49 20 14 0 35 14 53 36 17 19 40 46 53 61 12 14 22 31 22 37 0 6 9
19 19 28 24 20 17 58 -10 58 -10 0 -24 -9 -31 -20 -7 -11 -18 -20 -25 -20 -7
0 -13 -6 -13 -14 0 -8 -8 -22 -17 -32 -10 -10 -22 -27 -28 -38 -6 -12 -29 -30
-51 -41 -23 -11 -49 -26 -58 -34 -15 -13 -19 -13 -27 0 -12 20 -11 27 9 47 41
43 61 82 67 133 11 91 -9 119 -72 101z m15 -114 c-2 -24 -7 -43 -13 -43 -5 0
-11 19 -13 43 -3 33 0 42 13 42 13 0 16 -9 13 -42z"/>
<path d="M23443 265 c-12 -8 -24 -28 -28 -44 -3 -16 -13 -32 -21 -35 -10 -4
-14 -25 -14 -83 0 -95 6 -105 55 -101 38 3 39 3 19 22 -23 24 -25 123 -2 140
8 6 17 19 21 29 24 64 94 -1 99 -93 2 -37 -2 -64 -10 -72 -21 -21 -14 -28 27
-28 l38 0 7 61 c11 106 9 111 -42 167 -53 57 -103 69 -149 37z"/>
<path d="M16605 239 c-77 -4 -157 -14 -180 -23 -58 -21 -260 -27 -1245 -36
-1594 -15 -2215 -27 -2315 -44 -62 -11 -157 -16 -310 -17 -121 0 -274 -4 -340
-9 -195 -15 -719 -30 -1170 -34 -286 -3 -433 -8 -460 -16 -84 -25 -235 -28
-1395 -29 -989 -1 -1199 1 -1215 13 -36 24 -77 29 -310 36 -126 5 -250 13
-275 19 -25 6 -162 13 -305 16 -211 5 -267 10 -300 23 -66 28 -4329 26 -4395
-2 -43 -18 -84 -19 -825 -22 -429 -2 -799 -4 -822 -4 -46 0 -66 -30 -56 -83 7
-38 73 -41 73 -4 l0 24 462 -5 c599 -5 1213 10 1285 32 74 23 4143 20 4183 -3
19 -11 79 -16 260 -19 138 -2 247 -8 265 -14 108 -40 4906 -40 5060 -1 22 6
204 14 406 17 201 4 428 13 504 21 111 12 413 16 1520 21 1121 5 1387 9 1420
20 26 9 88 14 176 14 141 0 297 16 314 31 5 5 42 9 83 9 81 0 112 11 112 40 0
20 -29 41 -52 39 -7 -1 -76 -6 -153 -10z"/>
<path d="M23247 166 c-39 -51 -41 -166 -2 -166 23 0 25 4 25 44 0 29 7 52 21
70 23 30 23 79 -2 84 -9 2 -28 -13 -42 -32z"/>
<path d="M23140 171 c-6 -12 -17 -21 -25 -21 -12 0 -15 -14 -15 -58 0 -72 15
-95 58 -90 32 3 32 3 17 32 -19 36 -19 51 1 81 19 29 15 69 -8 73 -9 2 -22 -6
-28 -17z"/>
<path d="M420 153 c-45 -6 -50 -15 -50 -90 l0 -63 34 0 c33 0 35 2 38 37 l3
38 63 0 c73 0 108 25 84 61 -8 13 -119 24 -172 17z"/>
<path d="M16918 154 c-12 -4 -18 -15 -18 -34 0 -39 41 -54 125 -47 l65 5 0
-39 c0 -38 1 -39 35 -39 l35 0 0 58 c0 84 -7 90 -125 96 -55 3 -108 2 -117 0z"/>
<path d="M22747 153 c-13 -12 -7 -80 7 -93 8 -6 16 -21 18 -33 2 -17 11 -23
37 -25 l34 -3 -6 38 c-4 21 -7 46 -7 56 0 33 -64 80 -83 60z"/>
<path d="M19825 136 c-39 -18 -79 -63 -93 -104 l-11 -32 75 0 c56 0 74 3 74
14 0 7 9 25 21 40 49 62 7 115 -66 82z"/>
<path d="M19217 103 c-16 -15 -7 -82 12 -93 53 -28 115 -3 75 31 -8 7 -22 25
-30 41 -14 26 -42 37 -57 21z"/>
<path d="M22906 74 c-18 -17 -18 -20 -10 -51 5 -20 13 -23 51 -23 44 0 44 0
41 32 -4 41 -57 68 -82 42z"/>
<path d="M23786 82 c-2 -4 -7 -24 -11 -45 l-7 -37 41 0 c39 0 41 2 41 29 0 37
-49 77 -64 53z"/>
</g>
</svg>
