<?xml version="1.0" standalone="no"?>
<!DOCTYPE svg PUBLIC "-//W3C//DTD SVG 20010904//EN"
 "http://www.w3.org/TR/2001/REC-SVG-20010904/DTD/svg10.dtd">
<svg version="1.0" xmlns="http://www.w3.org/2000/svg"
 width="1800.000000pt" height="1440.000000pt" viewBox="0 0 1800.000000 1440.000000"
 preserveAspectRatio="xMidYMid meet">
<g transform="translate(0.000000,1440.000000) scale(0.100000,-0.100000)"
fill="#000000" stroke="none">
<path d="M135 14319 c-4 -5 -17 -14 -29 -19 l-22 -8 -13 -42 -12 -41 11 -35
12 -34 36 -25 c53 -36 111 -25 154 29 l18 21 0 45 0 46 -16 22 c-30 43 -122
70 -139 41z"/>
<path d="M513 14323 c-12 -2 -36 -17 -53 -33 l-30 -28 0 -40 0 -39 23 -34 22
-33 35 -8 c19 -4 47 -5 63 -2 l27 6 25 32 25 33 0 31 c0 79 -62 130 -137 115z"/>
<path d="M843 14310 c-77 -46 -77 -151 1 -199 84 -52 176 4 176 107 0 89 -98
140 -177 92z"/>
<path d="M8471 14315 c-14 -8 -30 -24 -36 -36 l-12 -22 13 -26 13 -26 -9 -9
c-6 -6 -10 -18 -10 -28 l0 -17 30 -16 c39 -20 56 -19 92 6 l30 22 -5 38 -5 39
9 -6 c5 -3 9 -20 9 -39 l0 -34 22 -15 c30 -21 45 -20 53 3 l6 20 -13 20 -13
21 18 17 17 17 0 -47 0 -46 19 -11 c11 -5 38 -10 61 -10 l41 0 14 33 14 32 1
-17 c0 -9 12 -26 26 -37 l26 -21 16 9 c8 5 24 6 34 3 l20 -5 9 14 c5 8 9 34 9
59 l1 45 21 -48 21 -48 -13 -23 c-7 -13 -9 -29 -5 -35 l7 -12 21 7 c30 9 48
37 73 111 l22 62 -13 11 c-16 13 -43 3 -56 -22 l-11 -20 -12 23 -12 24 -21 -2
-22 -3 -3 28 -3 27 -17 3 -17 3 -7 -25 -6 -26 -29 0 -29 0 -19 -31 -19 -30 -6
26 -7 26 -22 -3 -22 -3 -3 -38 -3 -38 -12 4 c-7 2 -14 19 -17 38 l-5 34 -26 0
c-15 1 -34 9 -43 18 -22 22 -52 22 -65 0 l-10 -18 -1 13 c0 13 -58 53 -75 51
-5 -1 -21 -7 -34 -14z"/>
<path d="M9236 14313 c-12 -12 -46 -95 -46 -112 0 -9 -5 -22 -10 -27 -15 -15
-1 -44 21 -44 10 0 24 9 31 20 16 25 40 26 55 1 l12 -19 38 0 c21 -1 46 1 56
4 l17 5 0 29 c0 34 9 60 21 60 5 0 9 -12 9 -26 l0 -26 29 -29 29 -29 24 0 25
0 22 24 c29 30 20 46 -25 46 l-34 0 0 14 0 14 40 -5 40 -6 0 14 c0 8 -7 25
-16 37 l-15 22 -35 0 c-20 0 -44 -5 -54 -10 l-19 -10 -6 10 c-7 11 -54 13 -79
4 l-16 -6 0 -38 c0 -59 -14 -55 -34 8 -23 76 -52 103 -80 75z"/>
<path d="M3160 13970 l-25 -6 1 -27 c0 -15 1 -3157 2 -6982 l2 -6955 35 0 35
0 -2 6095 c-2 3352 -1 6095 2 6095 3 0 14 -12 24 -27 l19 -26 6 -61 6 -61 28
-3 c30 -4 29 -6 32 64 l2 52 29 43 c17 24 33 52 36 61 l7 17 -16 12 -15 13
-29 -32 c-16 -18 -29 -40 -29 -49 l0 -16 -20 18 c-11 10 -22 26 -25 36 -4 11
-20 26 -37 35 l-30 16 6 31 c4 18 6 350 6 739 0 388 3 745 6 792 l7 86 14 0
c7 0 26 -8 40 -17 l27 -18 130 -2 c72 -2 1180 -5 2461 -8 l2330 -6 85 11 c47
6 127 13 179 16 l94 4 14 12 14 11 23 -12 23 -13 52 5 c29 3 59 11 67 18 l15
12 -10 10 -9 9 -55 -12 -56 -11 -19 10 -19 10 -2703 1 -2702 0 -17 9 c-9 4
-27 5 -41 1z"/>
<path d="M2765 13950 c24 -10 159 -10 200 0 l30 8 -125 0 -125 1 20 -9z"/>
<path d="M8895 13955 c-5 -2 -27 -6 -47 -10 l-38 -6 0 -14 0 -15 30 0 c17 0
40 6 51 13 l22 12 4 -12 c3 -7 13 -13 23 -13 10 0 20 6 23 13 l4 12 22 -12 21
-13 69 0 69 0 5 13 4 12 15 -13 16 -13 38 3 c22 1 49 -1 60 -5 l22 -8 17 17
17 17 8 -13 8 -13 39 0 c21 -1 110 -6 198 -14 l160 -13 1487 0 1487 0 6 -10 6
-10 2399 0 2399 0 6 10 6 10 225 0 224 0 0 40 0 40 -4327 -1 c-2381 -1 -4377
-5 -4438 -8 -60 -4 -116 -4 -124 0 -8 4 -25 2 -38 -4 l-24 -11 -34 13 -34 12
-20 -13 -21 -12 -12 12 c-12 12 -15 13 -33 7z"/>
<path d="M1359 13853 c-8 -9 -14 -34 -14 -57 l0 -41 -43 3 -43 3 -34 -25 -33
-25 -12 -51 -12 -51 12 -46 c18 -72 73 -106 134 -83 l27 10 41 -6 40 -7 8 13
c5 7 9 90 9 183 l1 170 -11 14 c-16 18 -54 16 -70 -4z m-21 -175 c7 -7 12 -33
12 -58 0 -51 -13 -70 -47 -70 l-22 0 -11 19 c-34 64 23 154 68 109z"/>
<path d="M434 13831 c-17 -10 -36 -33 -44 -50 l-13 -32 17 -38 18 -38 58 -37
c32 -21 61 -45 65 -53 l6 -17 -15 -15 -16 -15 -48 12 c-26 7 -56 10 -65 6
l-17 -6 0 -28 0 -28 45 -17 45 -18 33 6 c18 3 50 12 70 21 l38 15 15 38 16 37
-11 37 -11 37 -34 26 c-19 14 -39 26 -44 26 -4 0 -19 11 -32 25 l-24 25 13 13
12 12 52 0 51 0 4 18 c2 10 -4 27 -14 38 l-17 19 -61 0 -61 0 -31 -19z"/>
<path d="M2037 13835 c-9 -8 -23 -36 -32 -62 -9 -27 -21 -57 -25 -68 -5 -11
-26 -60 -46 -109 l-37 -88 9 -16 c5 -8 13 -14 17 -13 4 0 16 1 26 1 l19 0 22
45 22 45 53 0 54 0 15 -22 c9 -12 16 -30 16 -39 0 -9 11 -21 25 -27 l25 -12
25 10 c34 13 35 10 -30 165 -7 17 -20 53 -30 80 -39 111 -49 125 -95 125 -10
0 -25 -7 -33 -15z m47 -141 c3 -9 6 -24 6 -35 l0 -19 -25 0 -25 0 0 15 c0 37
33 67 44 39z"/>
<path d="M690 13780 c-11 -11 -22 -30 -25 -43 l-6 -23 15 -29 16 -30 0 -63 0
-63 15 -23 16 -24 35 -7 c19 -3 44 -3 54 0 l20 6 0 25 0 24 -25 12 -25 11 -6
34 c-8 42 3 103 19 103 7 0 18 4 26 9 l13 9 -7 21 c-3 11 -12 21 -20 21 -7 0
-20 11 -29 25 l-16 25 -25 0 c-14 0 -34 -9 -45 -20z"/>
<path d="M2600 13764 c-42 -8 -87 -36 -104 -65 l-16 -27 0 -59 0 -60 33 -38
34 -39 64 -4 64 -4 25 20 24 19 -17 27 -18 26 -24 -6 c-14 -3 -36 -3 -50 0
l-26 7 -8 22 c-5 13 -7 35 -4 51 l6 27 24 16 24 16 26 -14 25 -14 19 24 c23
29 24 34 1 54 -20 19 -64 27 -102 21z"/>
<path d="M890 13741 c-11 -22 -14 -160 -4 -210 l7 -32 30 -15 30 -16 26 7 c14
4 53 8 86 9 l60 1 3 128 3 127 -26 12 -27 12 -16 -11 -17 -10 -5 -80 -5 -80
-14 -17 c-37 -44 -62 0 -58 105 l2 70 -15 9 c-24 15 -48 12 -60 -9z"/>
<path d="M1485 13744 l-16 -17 7 -16 c3 -9 22 -61 42 -115 l35 -99 -23 -43
-24 -42 13 -16 c8 -9 24 -16 36 -16 l24 0 20 26 c12 15 21 33 21 40 0 8 4 22
9 32 6 9 33 65 61 124 l52 107 -4 23 -3 23 -27 3 -27 3 -20 -43 c-11 -24 -22
-53 -26 -66 l-7 -23 -16 3 -16 3 -13 44 c-21 75 -62 101 -98 65z"/>
<path d="M2296 13744 l-16 -15 0 -119 0 -119 19 -11 20 -10 25 10 26 10 0 78
0 78 12 12 c7 7 22 12 34 12 29 0 46 23 42 57 l-3 28 -19 3 c-10 2 -29 -2 -43
-9 l-23 -13 -12 12 c-17 17 -44 15 -62 -4z"/>
<path d="M15700 13471 c-8 -6 -29 -11 -46 -11 -17 0 -46 -3 -64 -7 l-33 -6 -4
-19 c-6 -22 -19 -24 -27 -3 l-5 15 -26 0 -26 0 -5 -15 -6 -15 -30 0 -29 0 3
-22 3 -23 42 -3 43 -3 -6 15 -6 16 20 0 20 0 5 -21 5 -20 201 2 201 3 18 -17
17 -18 0 -120 0 -120 13 -8 14 -8 -27 -41 c-15 -23 -35 -43 -44 -46 -20 -5
-2610 -4 -2853 1 l-177 4 -19 32 -18 32 1 123 0 122 38 39 c38 39 43 55 28 80
l-9 14 -41 -33 -41 -34 0 -45 c0 -25 -1 -67 -2 -93 l-3 -46 -22 -31 c-26 -35
-30 -83 -8 -101 8 -7 15 -21 15 -31 l0 -19 25 -10 25 -10 0 -17 1 -18 57 -27
57 -28 123 1 c119 0 231 15 243 31 3 5 21 13 40 18 l34 10 995 0 c547 0 1016
-3 1042 -6 l48 -7 0 -13 0 -14 23 0 c12 0 32 -3 45 -6 l23 -7 6 22 5 21 34 0
33 0 9 -15 8 -16 101 -4 100 -3 50 23 50 23 22 36 c13 20 29 36 37 36 l14 0 0
25 c0 27 -9 32 -27 14 l-11 -11 -7 12 c-4 6 -1 18 6 26 l13 16 31 -6 31 -6 18
13 18 13 -7 43 -7 42 -14 6 c-8 3 -14 14 -14 25 l0 20 -15 -12 c-17 -14 -39
-4 -31 16 3 7 -2 27 -12 43 l-16 29 17 20 18 20 -16 5 c-8 4 -21 4 -28 1 -8
-3 -26 0 -40 5 l-27 11 0 20 0 20 -31 -7 -32 -6 -9 16 c-5 10 -14 17 -20 17
-6 0 -16 7 -22 15 l-11 14 -50 6 -50 6 -15 -10z"/>
<path d="M13040 13460 c-8 -5 -30 -7 -47 -4 -36 7 -39 3 -20 -27 l12 -20 -23
-19 c-13 -11 -21 -24 -17 -30 l6 -10 210 1 209 1 0 9 c0 5 14 9 30 9 l30 0 0
14 c0 7 -11 21 -24 30 l-25 16 -6 -21 c-11 -33 -85 -54 -85 -24 l0 15 26 0 25
0 -3 18 -3 17 -29 3 -29 4 -9 -16 c-10 -17 -38 -22 -38 -7 0 6 6 13 13 18 l12
7 -70 13 c-86 15 -126 16 -145 3z"/>
<path d="M17183 13453 l-33 -4 0 -20 c0 -23 -16 -25 -28 -3 l-9 16 -18 -3
c-10 -2 -20 -10 -23 -17 l-4 -13 21 -6 c27 -7 27 -23 1 -23 -11 0 -20 5 -20
10 0 13 -33 13 -46 0 l-10 -10 -26 25 c-15 14 -32 25 -38 25 -16 0 -12 -20 5
-27 l16 -5 -3 -22 -3 -21 130 -5 c72 -3 136 -3 142 0 7 3 52 2 100 -1 49 -4
90 -5 93 -3 11 12 -20 38 -65 55 l-49 18 -12 -10 c-15 -12 -34 -4 -34 15 0 12
-7 17 -45 29 -5 2 -25 2 -42 0z"/>
<path d="M16385 13429 c-4 -5 -4 -21 -1 -35 l6 -24 -20 0 -20 0 -12 26 -12 26
-13 -18 c-7 -10 -13 -28 -13 -41 l0 -23 -15 0 c-8 0 -37 -21 -65 -47 l-51 -48
0 -20 c0 -11 5 -42 11 -70 6 -27 12 -61 13 -74 1 -13 16 -38 32 -55 17 -17 42
-46 58 -64 15 -17 35 -32 44 -32 9 0 24 -6 32 -14 9 -8 33 -19 53 -24 l37 -10
81 10 81 11 -5 12 -4 12 51 7 c68 8 313 8 399 -1 l68 -6 -18 -13 -17 -13 32
-1 c17 0 34 -4 37 -9 l6 -9 87 4 88 4 25 20 c14 11 35 25 48 30 12 5 22 14 22
19 0 5 16 15 36 21 l35 12 -14 16 -15 17 5 47 5 46 19 5 c23 6 25 26 4 32 -8
3 -22 7 -30 10 l-16 5 16 24 16 24 -14 43 c-8 24 -19 45 -25 47 l-10 3 -8 -43
c-4 -24 -7 -86 -6 -139 l1 -97 -24 -27 -23 -28 -509 -1 -508 0 -30 15 -30 14
-3 168 -2 167 19 0 c11 0 23 4 26 10 l6 10 134 -5 134 -6 20 13 20 12 25 -13
c26 -14 56 -9 56 9 0 5 -9 10 -20 10 -11 0 -23 6 -26 14 l-5 13 -23 -4 -23 -5
-6 21 -5 21 -16 -6 c-18 -7 -21 -30 -6 -39 12 -7 4 -25 -11 -25 -5 0 -9 7 -9
15 l0 15 -30 0 -29 0 -10 19 -10 18 -60 2 -60 1 -6 -11z"/>
<path d="M16740 13405 c0 -8 5 -15 10 -15 6 0 10 -7 10 -15 l0 -15 25 -6 c14
-3 36 -3 49 0 l24 6 -5 20 c-6 24 -21 26 -29 5 -9 -22 -27 -19 -58 10 l-26 24
0 -14z"/>
<path d="M14243 13390 c-6 -23 -31 -27 -39 -5 -4 8 -10 15 -15 15 -11 0 -12
-39 -1 -41 30 -6 104 -3 108 3 3 4 -2 8 -10 8 l-16 0 0 20 c0 11 -5 20 -11 20
-6 0 -13 -9 -16 -20z"/>
<path d="M16881 13381 l-11 -20 10 -6 c5 -3 21 -3 35 1 l26 6 -3 17 c-2 9 -13
17 -25 19 l-22 3 -10 -20z"/>
<path d="M5733 13331 c-38 -24 -53 -49 -53 -92 l0 -32 44 -41 c24 -22 58 -51
75 -64 36 -27 39 -42 11 -67 l-19 -17 -28 6 c-15 4 -41 10 -56 13 l-28 5 3
-33 3 -33 35 -9 c19 -5 58 -6 87 -2 l52 6 26 30 25 31 0 36 0 37 -29 30 c-16
17 -49 42 -75 57 -26 16 -49 35 -53 44 l-6 16 17 16 16 16 42 -11 43 -11 12
10 c37 30 6 66 -63 74 l-49 5 -32 -20z"/>
<path d="M3685 13330 c-9 -15 -14 -335 -5 -349 l7 -13 29 4 29 3 0 82 c0 106
7 110 40 18 l28 -75 24 -6 23 -6 15 12 c7 6 23 43 35 81 29 91 39 87 42 -18
l3 -88 30 0 30 0 0 174 0 174 -17 11 -18 11 -17 -11 c-23 -14 -36 -40 -74
-141 -17 -46 -34 -83 -39 -83 -5 0 -23 46 -40 103 -18 56 -37 108 -43 115 -11
14 -73 16 -82 2z"/>
<path d="M4057 13333 c-15 -14 -5 -41 43 -120 l49 -83 3 -77 3 -78 35 0 35 0
5 80 c5 72 23 135 39 135 4 0 17 20 31 45 14 25 28 45 32 45 5 0 8 14 8 30 l0
30 -23 0 c-28 0 -57 -29 -87 -87 -30 -58 -45 -53 -85 27 -26 51 -67 75 -88 53z"/>
<path d="M4520 13320 l-10 -20 2 -162 3 -163 35 0 35 0 3 61 3 60 45 12 46 12
29 29 29 29 0 47 c0 84 -40 115 -149 115 l-60 0 -11 -20z m140 -64 c18 -22 8
-57 -22 -79 l-27 -20 -15 12 -14 12 3 42 c2 23 4 43 4 45 2 9 61 -1 71 -12z"/>
<path d="M4779 13324 l-13 -16 -1 -157 -1 -156 9 -12 9 -13 127 0 c141 0 138
0 166 55 l20 40 51 1 c62 3 70 -2 87 -51 l14 -40 28 -3 c15 -2 32 1 37 6 l10
10 -56 140 c-31 77 -56 147 -56 154 0 19 -42 58 -63 58 -22 0 -42 -33 -67
-108 -11 -34 -35 -95 -54 -135 l-33 -73 -64 4 c-35 2 -70 9 -77 15 l-13 10 5
125 5 124 -10 19 c-12 23 -42 25 -60 3z m396 -154 c10 -46 -35 -76 -52 -34 -8
21 13 64 31 64 l14 0 7 -30z"/>
<path d="M5355 13318 c-3 -13 -4 -95 -3 -183 l3 -160 30 0 30 0 3 103 c1 56 6
102 11 102 5 0 32 -39 61 -87 29 -49 60 -96 68 -105 l15 -18 28 0 28 0 3 168
c4 197 -2 221 -46 189 l-19 -14 2 -91 c1 -51 -1 -97 -4 -102 l-7 -11 -25 38
c-14 21 -34 52 -44 69 -9 17 -23 42 -31 55 -7 13 -22 34 -32 47 l-19 22 -24 0
-23 0 -5 -22z"/>
<path d="M13425 13259 l-30 -19 -8 -27 c-4 -16 -5 -45 -1 -65 l6 -38 28 -20
28 -20 36 0 35 0 8 13 8 13 35 0 35 -1 3 43 3 42 15 0 14 0 0 -33 0 -33 30
-22 c32 -24 65 -29 76 -10 l7 11 -18 14 -19 13 17 0 c9 0 17 -4 17 -10 0 -5 5
-10 12 -10 6 0 19 -6 27 -14 l16 -14 40 7 40 6 5 55 5 55 7 -18 c4 -9 5 -30 2
-45 l-6 -29 27 -17 27 -18 11 11 10 10 -11 26 c-16 36 -15 60 4 76 l16 13 -28
23 -28 22 -21 -19 -21 -19 -37 11 -38 12 -16 -17 -16 -16 27 -12 27 -13 -26
-13 c-29 -16 -45 -10 -45 17 0 39 -66 64 -90 35 l-13 -16 -18 17 -19 17 -32
-9 -33 -10 -5 -44 -5 -45 -35 -1 c-19 0 -43 4 -52 8 l-18 9 0 34 c0 39 10 48
58 49 40 1 50 16 27 40 -21 21 -63 19 -100 -5z"/>
<path d="M15126 13268 l-17 -10 -39 7 c-22 4 -48 4 -60 0 l-20 -6 0 -84 c0
-46 4 -86 9 -89 16 -10 41 6 47 30 11 42 64 60 64 22 0 -13 4 -29 9 -37 l9
-14 30 6 30 6 13 -15 13 -16 41 7 c22 4 54 8 70 9 l30 1 13 43 c17 53 32 54
32 2 l0 -41 16 -6 16 -6 9 14 c6 8 8 38 6 67 l-4 54 -14 9 -14 10 -45 -7 c-55
-7 -50 -2 -60 -66 l-8 -53 -1 35 c-1 19 -4 45 -7 57 l-6 21 -25 7 c-31 7 -63
-2 -63 -20 0 -7 11 -16 25 -19 l26 -7 -6 -9 c-3 -6 -15 -10 -26 -10 -11 0 -22
-7 -25 -15 -12 -31 -24 -1 -24 60 l0 63 -13 5 c-7 3 -21 1 -31 -5z"/>
<path d="M14220 13213 c-11 -27 -25 -56 -30 -65 -6 -10 -10 -29 -10 -43 l0
-25 13 0 c8 0 22 9 32 20 24 26 52 25 74 -2 l18 -21 17 6 16 7 -6 27 c-4 16
-12 42 -19 58 -7 17 -17 42 -23 58 l-12 27 -25 0 -25 0 -20 -47z"/>
<path d="M14433 13248 c-6 -7 -11 -40 -12 -74 l-2 -61 16 -13 c20 -16 45 -6
45 19 0 11 5 23 10 26 6 3 10 2 10 -4 0 -5 12 -23 26 -41 l26 -31 14 12 14 11
0 80 0 79 -16 6 -16 6 -8 -13 c-4 -7 -5 -20 -3 -30 3 -10 0 -21 -5 -24 l-10
-6 -22 35 -22 35 -18 0 c-9 0 -22 -6 -27 -12z"/>
<path d="M16627 13242 c-27 -30 -9 -80 34 -94 l13 -4 -8 -12 c-4 -7 -16 -12
-28 -12 l-20 0 6 -16 c3 -9 6 -20 6 -25 0 -5 15 -9 34 -9 l34 0 5 13 4 12 34
-11 c39 -13 104 -11 103 2 -7 102 -26 137 -70 132 -34 -4 -42 -23 -13 -31 l21
-6 -7 -10 c-10 -18 -44 -13 -75 11 -33 24 -31 38 6 38 29 0 31 15 5 30 -30 15
-66 12 -84 -8z"/>
<path d="M14012 13214 l-22 -15 0 -44 0 -44 29 -20 c16 -12 39 -21 50 -21 l21
0 0 26 c0 14 5 34 11 46 l11 20 -12 28 -12 28 -21 6 c-30 8 -30 8 -55 -10z"/>
<path d="M14626 13207 l-26 -24 0 -31 0 -31 33 -25 c19 -15 44 -26 55 -26 l22
0 0 20 0 20 -17 0 -18 0 29 15 c35 18 36 18 36 2 0 -7 6 -22 14 -32 l14 -19
27 18 28 18 9 -16 c5 -9 16 -16 24 -16 l15 0 19 43 c11 23 20 54 20 70 l0 27
-19 0 -19 0 -6 -22 -7 -23 -11 23 c-13 26 -33 28 -55 7 l-15 -16 -18 16 c-9 8
-28 15 -41 14 -13 0 -34 2 -45 6 l-21 7 -27 -25z"/>
<path d="M16998 13213 l-17 -16 -15 12 -15 13 -13 -21 c-17 -27 -35 -27 -58 1
l-18 23 -13 -27 -12 -28 14 -17 c9 -10 20 -30 27 -45 17 -41 52 -35 66 10 l8
23 22 -33 22 -33 34 0 35 0 0 22 c0 11 3 25 8 29 4 4 7 20 7 35 l0 28 -26 20
c-32 25 -35 26 -56 4z"/>
<path d="M13195 13142 c-3 -19 -5 -35 -3 -36 2 -2 18 -10 37 -20 l34 -16 16
14 c9 8 25 16 35 17 26 5 29 20 8 45 l-17 22 -52 4 -51 5 -7 -35z"/>
<path d="M15517 13162 c-10 -10 -17 -28 -17 -40 l0 -22 25 0 26 0 5 -15 c7
-17 34 -21 34 -5 0 5 11 12 25 16 l25 6 0 39 0 39 -15 0 c-8 0 -24 -6 -35 -12
l-20 -12 -12 12 c-16 16 -22 15 -41 -6z"/>
<path d="M12925 12460 c-11 -18 17 -20 230 -18 l210 3 0 10 0 10 -217 3 -217
2 -6 -10z"/>
<path d="M15475 12460 c-11 -18 17 -20 230 -18 l210 3 0 10 0 10 -217 3 -217
2 -6 -10z"/>
<path d="M16375 12460 c-10 -17 16 -21 123 -18 l102 3 3 10 2 10 -112 3 -111
3 -7 -11z"/>
<path d="M17065 12460 c-11 -18 17 -21 156 -18 l134 3 0 10 0 10 -142 3 -141
3 -7 -11z"/>
<path d="M9805 12429 c-4 -5 -18 -14 -31 -19 -28 -11 -32 -35 -7 -45 l18 -6
17 20 c20 26 24 26 31 1 l5 -20 4081 0 4081 0 0 30 0 30 -4082 0 -4083 0 -3
10 c-5 13 -19 13 -27 -1z"/>
<path d="M3918 12258 c-4 -20 -3 -175 1 -231 l1 -18 28 3 27 3 3 57 3 58 20
10 19 11 5 -13 c2 -7 6 -38 7 -68 l3 -55 21 -3 c11 -2 26 4 33 12 l13 15 26
-18 27 -19 63 5 62 5 0 19 c0 10 -4 21 -10 24 -5 3 -10 31 -10 61 l0 54 -20
20 -20 20 -29 0 c-16 0 -36 -3 -45 -6 l-16 -6 0 -25 0 -25 31 7 31 7 -4 -13
c-3 -8 -14 -19 -26 -25 -12 -6 -30 -18 -40 -27 -26 -24 -32 -21 -32 12 0 68
-25 101 -77 101 l-32 0 -3 33 -3 32 -26 3 -27 3 -4 -23z"/>
<path d="M5447 12266 c-8 -20 -8 -222 -1 -241 7 -18 38 -20 51 -2 5 6 9 60 9
118 l-1 106 -14 16 c-17 21 -37 22 -44 3z"/>
<path d="M8942 12268 c-6 -6 -12 -20 -12 -30 0 -24 -8 -23 -36 7 l-23 25 -48
0 c-26 0 -54 -4 -61 -8 l-13 -9 -3 -109 c-4 -128 -3 -134 35 -134 l29 0 1 13
c1 6 2 25 3 41 l1 28 35 12 35 11 17 34 17 35 5 -15 c3 -8 7 -45 8 -84 l3 -70
28 -3 28 -3 -3 133 -3 133 -15 3 c-9 1 -21 -3 -28 -10z m-93 -62 l12 -15 -11
-21 c-19 -36 -52 -5 -36 36 7 18 20 18 35 0z"/>
<path d="M5271 12256 l-12 -14 3 -113 3 -114 24 -3 24 -4 8 14 c5 7 9 28 9 46
l0 32 24 0 24 0 26 31 26 31 0 33 0 34 -26 20 -27 21 -47 0 -48 0 -11 -14z"/>
<path d="M6098 12259 l-18 -10 0 -72 c0 -40 4 -78 9 -85 l8 -14 24 4 24 3 3
78 3 79 -12 14 c-13 16 -18 17 -41 3z"/>
<path d="M6323 12239 l-32 -31 -7 -34 c-15 -83 15 -143 85 -170 l45 -17 40 14
41 14 3 49 c4 55 -6 71 -37 61 l-21 -6 0 -30 0 -29 -30 0 -30 0 -16 25 -16 24
7 40 c3 21 15 47 25 56 l18 16 48 -3 49 -3 0 25 0 25 -70 3 -70 3 -32 -32z"/>
<path d="M6866 12240 c-14 -17 -30 -49 -37 -72 l-11 -41 17 -42 c18 -50 37
-68 85 -85 l35 -12 45 15 45 15 0 18 0 19 -55 3 -55 3 -17 16 -18 16 0 47 0
48 25 16 26 17 45 -7 46 -7 -4 29 -3 29 -71 3 -72 3 -26 -31z"/>
<path d="M7984 12262 l-12 -7 -4 -112 c-6 -123 -2 -136 33 -131 l24 3 3 58 c4
70 9 71 47 5 17 -28 38 -56 48 -62 l17 -11 18 11 17 11 0 114 0 114 -27 3 -28
3 0 -60 c0 -77 -8 -76 -59 4 -39 63 -53 73 -77 57z"/>
<path d="M9581 12251 c-12 -21 -13 -97 -2 -146 l6 -30 20 0 20 0 5 60 c3 33 3
76 0 95 l-5 35 -17 3 -17 3 -10 -20z"/>
<path d="M7551 12212 l-10 -18 8 -79 7 -78 23 -18 c29 -23 57 -24 65 -2 l7 16
-21 22 -20 21 0 32 0 32 20 17 c11 10 20 23 20 30 0 6 -9 15 -20 18 -11 3 -20
11 -20 16 0 5 -11 9 -25 9 l-24 0 -10 -18z"/>
<path d="M3429 12181 l-29 -29 0 -45 0 -44 20 -26 21 -26 32 -6 c65 -13 117
34 117 104 l0 30 -34 35 -33 36 -32 0 -33 0 -29 -29z m90 -44 c5 -13 7 -35 4
-50 l-5 -27 -24 0 -24 0 -11 24 -11 24 17 26 c21 32 43 33 54 3z"/>
<path d="M3621 12197 l-11 -11 0 -78 0 -78 23 -15 23 -15 60 8 59 7 0 90 0 90
-19 3 c-28 6 -38 -11 -41 -68 -3 -56 -15 -76 -40 -66 l-16 6 6 11 c4 6 4 35 0
64 l-6 53 -13 5 c-8 3 -19 0 -25 -6z"/>
<path d="M4487 12188 l-15 -23 -14 19 -14 18 -20 -4 -19 -3 -11 -35 c-6 -19
-18 -36 -27 -38 l-15 -3 -9 38 -9 38 -27 3 -27 3 0 -18 c0 -10 13 -52 29 -93
l28 -75 25 -3 c31 -4 40 8 64 83 l18 60 6 -45 c3 -25 14 -57 24 -72 l18 -27
34 -7 c43 -8 83 2 91 22 l6 16 -14 9 c-8 5 -29 9 -46 9 -46 0 -41 16 6 24 l39
6 6 16 c12 30 6 50 -22 77 l-28 27 -31 0 -31 0 -15 -22z"/>
<path d="M4760 12196 c-6 -6 -10 -47 -10 -93 l0 -84 16 -6 c9 -3 24 -2 33 4
l16 10 1 47 c1 51 14 72 38 63 l16 -6 -6 -55 -6 -54 20 -11 19 -10 11 11 12
12 0 76 0 77 -18 16 -18 17 -58 -3 c-31 -1 -61 -6 -66 -11z"/>
<path d="M4983 12192 c-12 -9 -29 -34 -38 -55 l-16 -39 19 -36 c10 -21 31 -43
46 -50 l28 -14 34 7 c19 3 43 16 54 27 l20 22 0 51 0 51 -28 27 -28 27 -35 0
c-18 0 -44 -8 -56 -18z m75 -53 l13 -21 -6 -29 -7 -29 -24 0 -24 0 0 38 c0 56
25 78 48 41z"/>
<path d="M5555 12196 l-18 -13 6 -16 6 -16 35 6 36 6 0 -12 c0 -6 -17 -18 -37
-26 -45 -19 -53 -30 -53 -73 l0 -32 23 -8 c12 -5 47 -8 77 -7 l55 2 -2 44 c-3
77 -14 128 -29 144 -19 19 -74 20 -99 1z"/>
<path d="M5763 12203 l-43 -4 0 -95 0 -95 28 3 27 3 3 57 3 58 20 10 19 11 5
-13 c2 -7 6 -38 7 -68 l3 -55 23 -3 22 -3 1 23 c1 13 1 52 0 88 l-3 65 -16 13
c-9 6 -25 11 -36 10 -12 -1 -40 -3 -63 -5z"/>
<path d="M5949 12203 c-47 -12 -43 -83 7 -114 35 -21 37 -45 4 -34 -11 3 -29
1 -41 -5 l-21 -12 16 -16 17 -17 44 0 44 0 15 15 c7 8 17 25 21 38 l7 23 -44
39 -43 40 27 0 c32 0 44 15 28 35 -12 14 -46 18 -81 8z"/>
<path d="M6554 12185 l-26 -25 -5 -42 -4 -43 20 -32 20 -32 33 -6 c18 -3 46
-2 62 3 l29 8 19 34 19 35 -6 35 c-4 19 -18 47 -33 63 l-26 27 -37 0 -38 0
-27 -25z m87 -49 l12 -25 -7 -26 -7 -26 -22 3 -22 3 -3 24 c-2 12 -1 34 2 47
l6 24 15 0 c9 0 20 -11 26 -24z"/>
<path d="M7070 12194 l-11 -12 3 -84 3 -83 25 0 25 0 5 59 5 58 25 20 25 20 3
-59 3 -60 23 -22 c13 -12 39 -24 59 -28 l37 -6 26 18 26 17 -8 8 c-5 5 -26 11
-47 13 -21 2 -40 7 -43 10 -10 10 8 29 22 23 8 -3 25 -1 39 4 l25 10 0 28 0
29 -25 27 -24 26 -29 0 c-16 0 -35 -7 -42 -15 -15 -18 -37 -20 -42 -3 l-4 12
-47 1 -47 2 -10 -13z"/>
<path d="M7398 12203 l-18 -4 0 -24 0 -24 35 6 35 6 0 -12 c0 -6 -17 -19 -37
-29 -46 -21 -53 -29 -53 -64 l0 -28 23 -13 22 -14 52 2 c28 2 57 6 63 10 l11
7 -7 31 c-7 29 -9 44 -13 100 0 9 -10 26 -21 37 l-20 20 -27 -1 c-16 -1 -36
-3 -45 -6z"/>
<path d="M7712 12194 c-12 -8 -29 -29 -38 -45 l-15 -30 7 -31 c3 -17 17 -43
30 -57 l23 -25 47 0 46 -1 12 18 11 18 -15 9 c-8 5 -24 7 -35 4 -24 -5 -50 10
-42 24 4 5 18 7 32 4 l25 -4 15 12 c8 7 15 26 15 42 l0 29 -25 24 c-28 29 -61
32 -93 9z"/>
<path d="M8230 12182 l-30 -30 0 -45 0 -44 20 -25 19 -25 41 -7 41 -6 19 10
c11 6 20 17 20 25 l0 15 -39 0 c-42 0 -63 16 -40 31 8 5 26 9 40 9 l27 0 14
22 15 23 7 -35 c4 -19 12 -47 18 -62 l10 -28 23 0 c27 0 39 14 50 55 l8 30 12
-40 12 -40 25 -3 25 -3 16 25 c9 13 19 43 23 66 4 22 11 43 15 46 5 3 9 16 9
30 l0 24 -19 0 c-22 0 -35 -15 -48 -54 l-9 -30 -17 41 c-26 66 -53 65 -82 -2
l-18 -40 -12 40 -12 40 -26 3 -27 3 0 -15 c0 -20 -16 -21 -27 -1 -5 8 -23 17
-40 21 l-32 6 -31 -30z"/>
<path d="M9045 12196 l-18 -13 6 -17 7 -18 31 7 31 7 -4 -18 -3 -18 -33 -8
-33 -9 -9 -24 -10 -25 10 -25 c5 -14 16 -25 25 -26 8 0 38 0 65 0 28 0 54 0
59 0 l10 1 -6 73 -6 72 -19 28 -19 27 -33 0 c-18 0 -41 -6 -51 -14z"/>
<path d="M9245 12201 l-40 -6 -5 -83 -5 -83 10 -10 c5 -5 19 -9 31 -9 l23 0 6
19 c3 10 5 23 4 27 -1 5 -1 25 0 45 l1 37 16 6 c24 9 27 3 25 -63 l-2 -59 11
-7 c6 -4 22 -4 36 -1 l24 6 0 69 0 68 -25 27 -24 26 -23 -1 c-13 -1 -41 -5
-63 -8z"/>
<path d="M9420 12190 c-11 -11 -20 -31 -20 -44 l0 -24 38 -31 37 -30 -33 -1
-33 0 -6 -16 -6 -17 19 -14 19 -15 38 5 c49 7 67 22 67 61 l0 31 -37 32 -38
32 28 1 28 0 6 16 6 16 -14 9 c-8 5 -29 9 -46 9 l-33 0 -20 -20z"/>
<path d="M6084 12045 c-9 -22 9 -37 37 -33 l24 3 0 20 0 20 -28 3 -27 3 -6
-16z"/>
<path d="M9580 12045 l-12 -15 12 -15 c15 -19 21 -19 45 -1 l19 14 -13 16
c-17 20 -35 20 -51 1z"/>
<path d="M10424 11987 c-2 -7 -3 -58 -2 -112 l3 -99 38 -9 37 -9 0 -17 c0 -37
61 -58 74 -25 9 25 7 72 -4 79 -16 10 -12 35 5 35 9 0 18 7 22 16 l6 16 -69
69 -68 69 -19 0 c-9 0 -20 -6 -23 -13z"/>
<path d="M778 8781 c-32 -10 -68 -45 -86 -84 l-20 -42 8 -100 c4 -55 13 -115
20 -132 l12 -32 33 -21 32 -20 757 0 756 0 40 36 40 36 0 143 0 143 -34 38
-35 39 -755 0 c-415 0 -760 -1 -768 -4z m1489 -56 c12 -4 29 -18 39 -32 l16
-25 1 -104 1 -104 -27 -28 -27 -27 -223 -6 c-122 -3 -451 -4 -731 -2 l-508 3
-28 17 c-36 21 -40 35 -40 160 l0 102 22 21 c24 22 40 27 98 33 65 6 1385 -1
1407 -8z"/>
<path d="M1132 8668 c-6 -7 -12 -50 -13 -95 l-3 -83 11 -11 c6 -6 19 -9 27 -6
l16 6 0 26 0 26 18 6 c84 32 96 106 21 132 -42 14 -64 14 -77 -1z"/>
<path d="M1851 8624 l-23 -16 -11 11 c-6 6 -25 11 -43 11 l-32 0 -20 -27 -19
-26 -23 26 -24 27 -28 0 -28 0 -18 -29 -17 -29 -30 30 -30 30 -38 -5 c-21 -3
-44 -11 -52 -17 l-15 -12 0 -49 c0 -64 -16 -63 -22 1 -3 27 -11 56 -18 65
l-12 15 -35 0 -35 0 7 -29 6 -30 -20 -20 c-25 -25 -27 -54 -6 -71 l15 -12 56
4 56 5 10 -29 10 -28 19 0 19 0 10 25 10 25 18 0 c11 0 32 12 47 26 l28 26 10
-19 c19 -34 67 -44 108 -22 26 13 15 29 -21 29 -16 0 -31 4 -34 9 l-6 9 40 7
c47 8 60 2 60 -30 0 -29 16 -41 35 -25 l15 12 0 37 0 36 19 12 20 12 6 -20 c4
-11 17 -25 31 -31 26 -12 23 -28 -7 -28 l-19 0 0 -14 c0 -26 64 -35 101 -16
24 14 24 45 -1 77 l-19 25 12 19 12 20 -15 9 c-21 14 -32 12 -59 -6z"/>
<path d="M900 7358 c-14 -5 -59 -12 -100 -14 -76 -5 -98 -13 -86 -33 l7 -11
28 14 27 15 150 -6 c83 -3 172 -2 199 2 l50 7 -23 9 c-12 5 -60 11 -105 14
-45 4 -91 8 -102 10 -11 2 -31 -1 -45 -7z"/>
<path d="M1890 7346 l-55 -12 55 -7 c30 -4 132 -7 227 -7 l172 0 6 10 c3 6 0
11 -7 12 -38 4 -86 7 -208 11 l-135 6 -55 -13z"/>
<path d="M2338 7143 l-3 -158 -30 -14 -30 -15 -130 -3 c-294 -6 -536 -16 -532
-20 7 -7 301 -22 493 -25 l170 -2 29 22 c15 12 34 22 43 22 l14 0 -4 25 c-3
14 0 29 6 34 l11 10 -1 58 c-2 96 -16 223 -25 223 -5 0 -10 -71 -11 -157z"/>
<path d="M1522 7248 l-12 -12 0 -91 0 -91 12 -12 c7 -7 31 -12 54 -12 l43 0
14 14 c8 8 20 28 27 45 15 36 21 38 45 11 l18 -19 -28 -11 -27 -10 12 -15 12
-15 34 0 34 0 20 20 c27 27 25 44 -10 73 l-30 26 20 6 c24 8 26 30 4 39 -29
11 -54 6 -71 -14 -21 -24 -41 -26 -49 -5 -3 8 -21 17 -40 21 l-34 6 0 19 c0
10 -8 23 -18 28 l-19 10 -11 -11z"/>
<path d="M1279 7223 c-1 -10 -2 -52 -3 -93 l-1 -75 -22 -10 c-43 -18 -16 -57
33 -47 l24 4 21 35 21 34 15 -20 14 -21 34 0 34 0 20 21 c40 43 34 103 -13
135 l-26 16 -27 -7 c-15 -3 -32 -14 -39 -23 l-12 -17 -7 30 c-12 52 -14 55
-40 55 l-25 0 -1 -17z"/>
<path d="M710 6970 l0 -21 18 -5 c9 -3 30 -13 46 -21 l29 -16 246 7 c135 4
271 11 301 15 l55 7 -165 7 c-91 4 -233 9 -316 10 l-152 3 -25 17 c-33 22 -37
21 -37 -3z"/>
<path d="M1459 5812 l-27 -3 -6 -22 c-8 -29 -7 -136 0 -164 9 -33 32 -28 48
11 8 19 25 40 38 46 12 7 31 22 40 34 l18 21 0 -52 c0 -60 7 -83 25 -83 20 0
25 24 25 120 l0 88 -14 5 c-16 6 -36 -11 -36 -32 l0 -14 -22 20 c-26 23 -51
30 -89 25z"/>
<path d="M1007 5803 c-10 -10 -8 -176 2 -192 l9 -14 16 6 16 6 0 23 1 23 10
-17 10 -18 29 0 28 0 10 28 10 27 1 -22 c1 -33 12 -53 27 -53 19 0 25 33 22
125 l-3 80 -18 3 -19 4 -13 -19 c-7 -10 -16 -33 -20 -51 l-6 -33 -10 7 c-6 3
-19 26 -29 50 l-19 44 -24 0 c-13 0 -27 -3 -30 -7z"/>
<path d="M2346 5775 c-9 -24 -7 -138 3 -153 l8 -14 6 14 c5 15 -1 159 -7 165
-2 2 -6 -3 -10 -12z"/>
<path d="M1217 5753 c-12 -11 -8 -43 9 -75 9 -17 16 -48 16 -69 l-1 -38 14
-11 14 -12 21 34 c11 18 23 44 27 57 3 14 12 36 19 50 17 32 18 58 2 67 l-11
7 -23 -28 -22 -28 -11 7 c-6 4 -11 13 -11 21 0 7 -7 16 -16 19 -19 7 -19 7
-27 -1z"/>
<path d="M1654 5746 l-19 -15 29 -11 29 -11 -9 -8 c-5 -5 -18 -11 -29 -13
l-20 -3 -3 -31 -3 -31 16 -13 16 -13 51 2 c64 2 59 -5 50 75 l-9 68 -14 9
c-21 13 -63 11 -85 -5z"/>
<path d="M1797 5753 c-3 -4 -7 -39 -8 -78 l-4 -70 19 0 c22 0 33 17 41 68 8
52 22 46 27 -13 6 -57 10 -65 33 -56 l16 6 -3 72 -3 73 -57 3 c-31 2 -58 -1
-61 -5z"/>
<path d="M1954 5735 l-16 -24 21 -27 c25 -32 27 -44 6 -44 -18 0 -20 -21 -3
-38 19 -19 54 -14 84 11 l27 24 -6 25 c-4 13 -17 29 -29 35 l-23 10 23 12 23
12 -12 15 -11 14 -34 0 -34 0 -16 -25z"/>
<path d="M2328 5549 l-18 -19 -47 -2 c-27 -1 -57 -1 -68 0 -20 1 -106 -15
-135 -26 l-15 -5 30 -7 c17 -4 65 -8 107 -9 l78 -1 40 16 c38 15 60 39 60 63
0 16 -13 12 -32 -10z"/>
<path d="M750 5523 c0 -15 73 -43 111 -43 78 0 154 26 82 28 -32 0 -101 8
-155 18 l-38 6 0 -9z"/>
<path d="M2052 4493 l3 -18 41 -5 c22 -3 65 -3 95 0 l54 6 -18 8 c-10 5 -36 6
-58 3 l-39 -5 -14 14 c-8 8 -26 14 -41 14 l-26 0 3 -17z"/>
<path d="M915 4489 c-10 -15 -6 -17 55 -19 78 -3 100 -1 100 9 0 14 -41 18
-74 7 l-29 -9 -18 12 c-23 14 -26 14 -34 0z"/>
<path d="M2340 4273 l0 -148 -10 -15 -9 -15 -168 -3 -168 -3 -9 -9 c-17 -17 3
-23 108 -34 l105 -10 72 18 73 18 15 21 c9 12 16 38 18 57 9 135 0 270 -18
270 l-9 0 0 -147z"/>
<path d="M1096 4364 c-10 -26 -7 -164 4 -185 l11 -19 46 0 46 0 17 15 17 16
13 -16 c7 -8 25 -15 39 -15 l27 0 29 30 28 30 22 -23 21 -22 -13 -16 -14 -16
16 -13 c21 -18 73 -15 95 5 l17 16 6 63 c3 34 3 72 0 84 l-5 21 -29 6 c-16 4
-42 4 -59 0 l-29 -6 -6 -20 c-8 -24 -19 -24 -42 0 -10 10 -27 23 -38 29 l-20
10 -32 -13 c-36 -15 -53 -41 -53 -80 l0 -26 -27 3 -28 3 0 68 0 68 -15 9 c-22
14 -37 12 -44 -6z"/>
<path d="M1875 4340 c-10 -16 2 -136 17 -159 l13 -21 22 0 c31 0 37 16 23 61
l-13 40 11 11 c15 15 15 51 0 66 -14 14 -64 16 -73 2z"/>
<path d="M1587 4324 c-53 -29 -61 -91 -18 -135 37 -37 63 -37 103 2 l32 30 11
-14 c5 -9 15 -23 20 -33 l11 -17 49 9 50 9 6 60 c7 71 3 85 -22 85 -18 0 -43
-32 -33 -42 2 -3 -1 -18 -7 -34 l-11 -29 -8 20 c-5 11 -9 35 -9 53 l-1 32 -18
0 c-9 0 -23 -10 -31 -22 l-14 -22 -13 18 c-10 14 -60 48 -68 46 0 -1 -14 -8
-29 -16z"/>
<path d="M770 4092 c-18 -6 -10 -21 20 -37 l29 -15 58 0 c61 0 193 17 202 25
18 19 -262 43 -309 27z"/>
<path d="M677 284 c-10 -11 -8 -236 2 -253 l9 -14 16 6 17 7 -3 127 -3 128
-15 3 c-9 1 -19 0 -23 -4z"/>
<path d="M1944 275 c-4 -9 -7 -26 -8 -38 l-1 -22 -37 -3 -37 -3 -23 -32 -23
-31 1 -37 c2 -76 42 -105 129 -91 l50 7 0 130 0 130 -23 3 -22 3 -6 -16z m-6
-153 c4 -35 -11 -62 -34 -62 -17 0 -28 42 -20 76 l7 25 22 -3 22 -3 3 -33z"/>
<path d="M200 270 l-13 -8 6 -52 c4 -29 10 -57 15 -64 5 -6 13 -29 17 -51 9
-54 22 -75 46 -75 l19 0 15 33 c7 17 17 46 21 62 l7 30 10 -35 c5 -19 14 -48
19 -63 l11 -28 20 3 21 3 19 60 c10 33 24 70 29 82 6 12 11 39 12 60 l1 38
-19 0 -19 0 -20 -64 -19 -63 -9 13 c-5 8 -9 31 -9 51 l0 37 -16 15 c-31 32
-74 -6 -74 -66 0 -13 -4 -29 -9 -37 l-9 -14 -7 34 c-18 91 -35 117 -65 99z"/>
<path d="M2742 268 c-7 -7 -12 -33 -12 -59 l0 -48 16 -15 c8 -9 24 -16 34 -16
23 0 42 -32 34 -54 -3 -9 -15 -16 -26 -16 -11 0 -28 -5 -39 -11 l-20 -10 12
-15 11 -14 42 0 43 0 21 23 22 23 0 41 0 42 -26 20 c-15 12 -35 21 -45 21
l-19 0 0 20 0 20 40 0 41 0 5 15 c4 8 1 22 -6 30 l-12 15 -52 0 -52 0 -12 -12z"/>
<path d="M519 198 c-9 -7 -23 -25 -33 -41 l-17 -27 12 -40 c15 -49 33 -66 79
-75 l35 -6 20 15 20 15 -15 4 c-8 2 -28 8 -45 13 l-30 9 0 20 0 20 36 -3 36
-3 11 14 12 14 -11 32 c-17 48 -75 68 -110 39z"/>
<path d="M792 203 c-37 -15 -52 -94 -27 -144 24 -45 98 -66 124 -35 l11 13
-14 13 c-9 6 -19 9 -24 6 -5 -3 -18 2 -30 10 l-22 15 0 28 c0 33 16 51 46 51
25 0 49 24 39 40 -6 10 -79 13 -103 3z"/>
<path d="M940 188 c-71 -77 -10 -195 90 -173 l29 6 21 33 c25 41 26 78 3 114
-24 38 -32 42 -80 42 l-42 0 -21 -22z m96 -53 c3 -14 3 -36 0 -50 l-6 -25 -24
0 -23 0 -10 23 -10 22 9 28 10 27 24 0 24 0 6 -25z"/>
<path d="M1127 191 c-3 -9 -3 -38 -2 -66 1 -27 3 -62 4 -77 l1 -28 20 0 20 0
0 48 0 47 20 25 19 25 10 -10 c5 -5 11 -37 13 -70 l3 -60 21 -3 21 -3 7 31 c3
18 3 42 0 54 l-5 22 20 19 c28 24 30 20 38 -59 l6 -67 21 3 21 3 3 66 c2 36
-2 77 -7 91 l-10 26 -120 0 -120 0 -4 -17z"/>
<path d="M1450 188 c-74 -80 -1 -200 105 -174 l26 7 -3 17 -3 17 -40 5 -40 5
-3 18 -3 17 38 0 c64 0 81 35 42 84 l-20 26 -39 0 -39 0 -21 -22z"/>
<path d="M2055 193 c-57 -56 -32 -161 41 -177 l31 -7 27 11 27 10 -6 10 c-3 5
-17 10 -30 10 -36 0 -55 10 -55 31 l0 19 29 0 c16 0 36 3 45 6 l16 6 0 27 0
28 -23 21 -23 22 -31 0 -32 0 -16 -17z"/>
<path d="M2223 203 l-13 -5 0 -78 0 -78 15 -12 c8 -7 22 -10 30 -6 l15 5 0 46
c0 52 14 85 35 85 l14 0 3 -67 3 -68 20 0 20 0 3 45 c3 51 19 90 38 90 l13 0
3 -67 3 -68 28 -3 27 -3 0 79 0 79 -17 15 -18 15 -105 1 c-58 0 -111 -2 -117
-5z"/>
<path d="M2535 183 l-25 -28 0 -42 0 -42 24 -28 24 -28 46 0 45 0 22 22 23 22
0 50 1 49 -24 26 -24 26 -43 0 -43 0 -26 -27z m95 -48 l10 -25 -10 -25 -10
-25 -20 0 -20 0 -6 25 c-3 14 -3 36 0 50 l6 25 20 0 20 0 10 -25z"/>
<path d="M1620 65 l-12 -15 6 -25 6 -25 30 0 30 0 0 24 c0 53 -32 75 -60 41z"/>
</g>
</svg>
