<?xml version="1.0" standalone="no"?>
<!DOCTYPE svg PUBLIC "-//W3C//DTD SVG 20010904//EN"
 "http://www.w3.org/TR/2001/REC-SVG-20010904/DTD/svg10.dtd">
<svg version="1.0" xmlns="http://www.w3.org/2000/svg"
 width="302.000000pt" height="182.000000pt" viewBox="0 0 302.000000 182.000000"
 preserveAspectRatio="xMidYMid meet">
<g transform="translate(0.000000,182.000000) scale(0.100000,-0.100000)"
fill="#000000" stroke="none">
<path d="M471 1641 c-25 -16 -10 -192 24 -276 51 -130 114 -224 220 -331 199
-200 457 -334 776 -403 204 -44 278 -51 499 -51 234 0 275 6 275 36 0 18 -8
19 -220 16 -239 -4 -340 6 -552 54 -153 34 -248 66 -368 125 -259 125 -439
289 -540 488 -53 107 -66 152 -74 260 -6 84 -13 99 -40 82z"/>
<path d="M545 1641 c-3 -5 -2 -12 3 -15 5 -3 9 1 9 9 0 17 -3 19 -12 6z"/>
<path d="M1010 926 c0 -2 8 -10 18 -17 15 -13 16 -12 3 4 -13 16 -21 21 -21
13z"/>
<path d="M1987 903 c-39 -38 56 -126 203 -187 60 -25 121 -46 135 -46 14 0 25
-2 25 -4 0 -3 -24 -38 -53 -79 -61 -84 -93 -153 -109 -233 -9 -47 -9 -58 5
-71 24 -24 43 -3 50 55 11 90 79 213 175 314 45 48 34 65 -44 67 -40 1 -83 12
-157 43 -83 34 -112 52 -154 95 -51 52 -63 59 -76 46z m34 -40 c13 -16 12 -17
-3 -4 -17 13 -22 21 -14 21 2 0 10 -8 17 -17z m376 -190 c0 -7 -9 -13 -19 -13
-11 0 -17 4 -14 9 4 5 0 12 -6 14 -7 3 -1 5 13 4 14 -1 26 -7 26 -14z"/>
<path d="M2466 743 c-6 -14 -5 -15 5 -6 7 7 10 15 7 18 -3 3 -9 -2 -12 -12z"/>
</g>
</svg>
