<?xml version="1.0" standalone="no"?>
<!DOCTYPE svg PUBLIC "-//W3C//DTD SVG 20010904//EN"
 "http://www.w3.org/TR/2001/REC-SVG-20010904/DTD/svg10.dtd">
<svg version="1.0" xmlns="http://www.w3.org/2000/svg"
 width="600.000000pt" height="82.000000pt" viewBox="0 0 600.000000 82.000000"
 preserveAspectRatio="xMidYMid meet">
<g transform="translate(0.000000,82.000000) scale(0.100000,-0.100000)"
fill="#000000" stroke="none">
<path d="M4298 393 c-110 -2 -178 -7 -178 -13 0 -16 372 -8 378 8 2 6 -2 11
-10 10 -7 -1 -93 -4 -190 -5z"/>
<path d="M4910 379 c0 -18 254 -27 264 -10 5 8 -24 11 -97 11 -58 0 -119 3
-136 6 -23 5 -31 3 -31 -7z"/>
<path d="M1678 373 c-74 -2 -128 -8 -128 -13 0 -12 61 -12 217 -3 62 3 110 10
107 15 -3 4 -20 7 -37 6 -18 -1 -89 -4 -159 -5z"/>
<path d="M2093 368 c-2 -5 -3 -8 -1 -8 49 -7 308 -7 313 0 3 5 -55 10 -151 12
-86 2 -158 0 -161 -4z"/>
<path d="M3460 370 c0 -6 52 -10 135 -10 83 0 135 4 135 10 0 6 -52 10 -135
10 -83 0 -135 -4 -135 -10z"/>
<path d="M445 360 c-3 -6 62 -9 175 -8 99 1 180 5 180 10 0 12 -348 10 -355
-2z"/>
<path d="M1093 362 c-35 -2 -63 -7 -63 -12 0 -13 127 -13 135 -1 8 14 -4 16
-72 13z"/>
<path d="M2740 360 c0 -6 58 -10 155 -10 97 0 155 4 155 10 0 6 -58 10 -155
10 -97 0 -155 -4 -155 -10z"/>
<path d="M5555 360 c4 -6 58 -10 131 -10 76 0 124 4 124 10 0 6 -50 10 -131
10 -84 0 -128 -4 -124 -10z"/>
</g>
</svg>
