<svg width="283" height="244" viewBox="0 0 283 244" fill="none" xmlns="http://www.w3.org/2000/svg">
<path d="M243.675 2.16267C252.475 1.76267 259.009 4.32934 261.175 5.66267L268.175 7.1626C274.575 5.1626 277.175 14.9959 277.675 20.1626L279.675 66.1626C278.875 74.9626 280.675 110.829 281.675 127.663L282.175 157.663L281.675 186.163C282.475 198.963 279.009 210.829 277.175 215.163C276.342 216.329 273.475 220.463 268.675 227.663C263.875 234.863 254.009 239.996 249.675 241.663L226.675 242.663C208.675 243.463 173.509 242.329 158.175 241.663L103.175 239.663L55.1752 238.163L20.6752 227.663C8.27523 226.063 4.50857 215.996 4.17523 211.163L2.17523 190.663L0.675243 145.663C-0.124757 140.863 2.00858 119.996 3.17524 110.163L4.17524 53.1626L5.17524 10.6626C5.17524 3.8626 10.8419 1.49592 13.6753 1.16258C8.87525 -0.037418 50.6752 0.662582 72.1752 1.16258H156.175C181.675 1.66261 234.875 2.56267 243.675 2.16267Z" fill="black" stroke="black" stroke-linecap="round"/>
</svg>
