<svg width="146" height="26" viewBox="0 0 146 26" fill="none" xmlns="http://www.w3.org/2000/svg">
<path d="M10.7254 0.672797C10.4578 1.13708 10.7254 1.70454 11.439 1.96248C12.1525 2.22042 40.5173 2.37518 77.1774 2.272C134.175 2.16883 141.578 2.272 141.043 2.94264C138.991 5.98629 135.334 17.2839 135.334 20.5339V22.5458H130.696C128.109 22.5458 114.373 22.0815 100.101 21.4625C80.2101 20.6887 66.1169 20.4307 39.1793 20.4823H4.12478L4.65997 19.399C6.17632 16.6649 8.67385 8.61724 8.67385 6.39899C8.67385 4.38708 8.40626 3.97438 7.0683 3.97438C5.73034 3.97438 5.28435 4.74819 4.30318 8.72042C3.6788 11.3514 2.34084 15.4268 1.27047 17.7482C0.289297 20.0696 -0.245887 22.1847 0.110903 22.3911C0.467692 22.649 15.542 22.7522 33.4707 22.649C65.671 22.4942 69.774 22.5974 129.625 24.9188C138.991 25.2799 138.456 25.5379 139.348 20.1728C140.151 15.0657 142.202 8.97835 144.432 4.59343C145.413 2.52994 146.127 0.724384 145.859 0.569622C145.592 0.41486 115.175 0.208511 78.337 0.105337C17.8612 -0.101013 11.2606 -0.0494253 10.7254 0.672797Z" fill="black"/>
</svg>
