<svg width="307" height="291" viewBox="0 0 307 291" fill="none" xmlns="http://www.w3.org/2000/svg">
<path d="M264.675 2.48886C274.235 2.01039 281.333 5.08059 283.687 6.6755L291.291 8.46969C298.244 6.07732 301.068 17.8398 301.611 24.0201L303.784 79.0445C302.915 89.5709 304.871 132.474 305.957 152.61L306.5 188.495L305.957 222.587C306.826 237.898 303.06 252.092 301.068 257.276C300.163 258.671 297.049 263.616 291.834 272.228C286.62 280.841 275.901 286.981 271.193 288.975L246.207 290.171C226.653 291.128 188.449 289.772 171.792 288.975L112.042 286.582L59.8969 284.788L22.4175 272.228C8.94668 270.314 4.85473 258.273 4.49261 252.491L2.3199 227.969L0.690371 174.141C-0.178715 168.399 2.13885 143.439 3.40627 131.677L4.49262 63.4941L5.57898 12.6563C5.57898 4.52228 11.735 1.6913 14.813 1.29257C9.59851 -0.14285 55.0083 0.694478 78.365 1.29257H169.619C197.321 1.8907 255.115 2.96733 264.675 2.48886Z" fill="black" stroke="black" stroke-linecap="round"/>
</svg>
