<?xml version="1.0" standalone="no"?>
<!DOCTYPE svg PUBLIC "-//W3C//DTD SVG 20010904//EN"
 "http://www.w3.org/TR/2001/REC-SVG-20010904/DTD/svg10.dtd">
<svg version="1.0" xmlns="http://www.w3.org/2000/svg"
 width="600.000000pt" height="405.000000pt" viewBox="0 0 600.000000 405.000000"
 preserveAspectRatio="xMidYMid meet">
<g transform="translate(0.000000,405.000000) scale(0.100000,-0.100000)"
fill="#000000" stroke="none">
<path d="M1505 3801 c-3 -5 -2 -12 3 -15 5 -3 9 1 9 9 0 17 -3 19 -12 6z"/>
<path d="M5575 3771 c-3 -5 -2 -12 3 -15 5 -3 9 1 9 9 0 17 -3 19 -12 6z"/>
<path d="M5317 3749 c-10 -6 -29 -8 -41 -5 -13 3 -49 -1 -80 -9 -31 -8 -77
-15 -101 -15 -24 0 -47 -4 -50 -10 -3 -5 -33 -10 -66 -10 -44 0 -59 -4 -59
-14 0 -15 52 -13 120 4 19 5 64 12 100 15 135 11 180 18 180 26 0 5 47 9 105
9 102 0 105 -1 105 -22 0 -13 7 -45 15 -72 10 -34 13 -69 9 -110 -3 -34 -1
-104 5 -156 7 -52 19 -174 27 -270 8 -96 19 -220 24 -275 5 -55 9 -271 10
-480 0 -209 5 -522 11 -695 13 -407 17 -528 26 -973 8 -352 7 -369 -11 -385
-17 -16 -142 -17 -1680 -20 -1704 -3 -1715 -3 -2231 38 -269 21 -935 38 -935
23 0 -5 -62 -10 -137 -11 -143 -1 -233 -9 -233 -20 0 -4 -12 -8 -28 -8 -15 -1
-34 -3 -42 -5 -11 -3 -18 16 -29 81 -11 70 -14 365 -18 1682 -4 1597 -4 1597
17 1618 25 25 25 30 0 30 -10 0 -24 -9 -30 -19 -7 -13 -10 -527 -10 -1590 0
-1352 2 -1586 15 -1687 20 -146 24 -157 68 -142 17 6 34 14 37 17 8 9 33 12
220 21 420 21 960 8 1275 -32 63 -8 639 -12 1908 -15 l1818 -4 30 31 31 31 -6
337 c-3 185 -10 443 -16 572 -10 237 -16 534 -25 1215 -3 240 -10 412 -20 490
-8 66 -15 152 -15 191 0 39 -5 95 -10 125 -6 30 -15 133 -20 229 -5 96 -16
198 -23 225 l-13 50 -105 2 c-61 2 -112 -2 -122 -8z"/>
<path d="M465 3738 c-22 -5 -52 -9 -67 -9 -14 0 -28 -5 -31 -12 -3 -9 17 -10
89 -3 52 5 94 12 94 16 0 8 921 1 934 -7 5 -3 7 0 4 8 -4 12 -86 14 -494 15
-284 1 -506 -2 -529 -8z"/>
<path d="M1500 3732 c0 -5 20 -18 44 -30 46 -23 96 -29 96 -11 0 5 -8 9 -17 8
-10 -2 -37 7 -60 19 -45 23 -63 27 -63 14z"/>
<path d="M1660 3681 c0 -16 69 -22 263 -23 1030 -7 2893 -6 2900 1 6 6 -518
12 -1384 16 -767 3 -1481 8 -1586 10 -106 2 -193 0 -193 -4z"/>
<path d="M4863 3682 c-13 -2 -23 -8 -23 -13 0 -12 57 -12 64 0 7 11 -13 18
-41 13z"/>
<path d="M1500 3671 c0 -6 4 -13 10 -16 6 -3 7 1 4 9 -7 18 -14 21 -14 7z"/>
</g>
</svg>
