<?xml version="1.0" standalone="no"?>
<!DOCTYPE svg PUBLIC "-//W3C//DTD SVG 20010904//EN"
 "http://www.w3.org/TR/2001/REC-SVG-20010904/DTD/svg10.dtd">
<svg version="1.0" xmlns="http://www.w3.org/2000/svg"
 width="600.000000pt" height="800.000000pt" viewBox="0 0 600.000000 800.000000"
 preserveAspectRatio="xMidYMid meet">
<g transform="translate(0.000000,800.000000) scale(0.100000,-0.100000)"
fill="#000000" stroke="none">
<path d="M1501 2829 c-25 -5 -49 -13 -54 -18 -5 -5 -10 -63 -11 -128 -1 -115
0 -121 43 -243 52 -150 55 -156 146 -295 78 -119 96 -158 115 -250 20 -99 73
-186 184 -304 86 -91 104 -117 124 -171 13 -36 48 -102 78 -148 48 -71 57 -90
61 -143 4 -41 2 -68 -8 -86 -18 -34 -148 -119 -203 -134 -22 -5 -72 -23 -111
-39 -38 -15 -95 -33 -125 -39 -30 -5 -89 -22 -130 -36 -41 -14 -114 -39 -161
-55 -50 -16 -115 -48 -152 -73 -40 -28 -86 -49 -118 -56 -84 -18 -136 -46
-189 -103 -145 -153 -210 -232 -220 -268 -16 -60 -30 -190 -24 -216 6 -22 12
-24 61 -24 48 0 54 2 43 15 -15 18 -4 168 15 205 8 14 34 45 60 70 26 25 67
73 92 108 50 70 68 81 181 117 43 14 107 44 143 66 82 54 372 159 436 159 13
0 61 15 106 34 45 19 103 39 127 46 63 17 124 55 196 123 73 68 89 105 80 185
-8 67 -31 121 -86 202 -23 33 -50 85 -60 114 -29 86 -45 109 -144 214 -107
113 -144 177 -176 303 -14 58 -35 108 -67 159 -25 41 -68 111 -94 154 -66 107
-129 299 -129 392 0 64 1 66 23 60 642 -174 2592 -396 3485 -396 149 0 183 -6
151 -26 -6 -3 -26 -38 -45 -77 -37 -78 -44 -139 -19 -174 17 -25 71 -43 127
-43 97 0 92 -113 -7 -150 -55 -21 -195 -24 -257 -6 -108 31 -155 18 -251 -73
-50 -47 -63 -73 -86 -170 -29 -128 -53 -150 -180 -170 -34 -5 -75 -20 -92 -31
-48 -35 -87 -126 -105 -243 -19 -126 -34 -154 -104 -189 -64 -32 -128 -99
-160 -167 -20 -44 -21 -52 -9 -77 13 -27 19 -29 84 -34 53 -4 84 -13 130 -38
33 -17 73 -32 88 -32 38 0 56 -10 172 -101 107 -82 139 -114 199 -194 46 -63
146 -132 234 -161 47 -16 80 -35 111 -65 38 -38 42 -47 38 -76 l-6 -33 55 0
c52 0 54 1 54 27 0 57 -81 178 -139 207 -14 7 -43 16 -64 19 -54 8 -167 87
-216 150 -100 130 -296 287 -389 312 -31 9 -87 31 -123 50 -37 19 -76 35 -88
35 -39 0 1 56 62 86 117 59 136 88 161 245 28 171 55 209 161 224 129 18 174
64 217 223 32 115 46 138 117 180 42 25 44 25 90 9 110 -38 264 -29 360 20 45
23 60 38 83 82 35 66 38 136 8 174 -27 34 -110 61 -161 53 -36 -6 -39 -4 -39
16 0 13 21 59 47 103 25 44 57 99 70 123 14 23 23 48 20 55 -38 98 -1534 322
-2742 411 -475 35 -984 47 -1094 25z"/>
</g>
</svg>
