<?xml version="1.0" standalone="no"?>
<!DOCTYPE svg PUBLIC "-//W3C//DTD SVG 20010904//EN"
 "http://www.w3.org/TR/2001/REC-SVG-20010904/DTD/svg10.dtd">
<svg version="1.0" xmlns="http://www.w3.org/2000/svg"
 width="288.000000pt" height="254.000000pt" viewBox="0 0 288.000000 254.000000"
 preserveAspectRatio="xMidYMid meet">
<g transform="translate(0.000000,254.000000) scale(0.100000,-0.100000)"
fill="#000000" stroke="none">
<path d="M533 2235 c-60 -26 -60 -25 -66 -425 -3 -201 -11 -431 -18 -511 -10
-114 -10 -197 -1 -390 6 -134 16 -260 22 -280 18 -65 43 -85 143 -118 259 -85
237 -82 607 -87 184 -2 396 -9 470 -14 159 -12 354 -12 536 -1 127 7 133 9
177 41 56 40 122 131 149 208 19 52 21 80 22 332 0 339 -19 1011 -33 1102 -11
79 -13 82 -51 101 -23 12 -31 12 -39 3 -13 -15 -4 -26 20 -26 43 0 49 -52 59
-470 4 -206 13 -436 20 -510 12 -146 0 -449 -21 -520 -19 -63 -100 -172 -153
-204 l-47 -30 -222 -4 c-122 -3 -330 0 -462 7 -132 7 -357 13 -500 15 l-260 2
-160 48 c-182 55 -189 58 -212 92 -36 56 -58 567 -32 764 6 47 12 249 13 448
l1 364 27 23 27 23 863 -4 c484 -3 889 -9 923 -14 78 -13 85 -13 85 4 0 30
-125 34 -1105 40 -615 4 -756 2 -782 -9z"/>
<path d="M2333 533 c4 -3 2 -12 -4 -19 -7 -8 -7 -14 1 -19 6 -4 9 -1 8 7 -2 7
3 12 11 10 12 -3 12 0 1 12 -7 9 -15 16 -18 16 -3 0 -2 -3 1 -7z"/>
</g>
</svg>
