<svg width="14" height="19" viewBox="0 0 14 19" fill="none" xmlns="http://www.w3.org/2000/svg">
<path d="M7.49375 1.43703C3.64375 4.23425 0 7.76758 0 8.72453C0 10.344 2.0625 9.82869 2.68125 7.98842C3.1625 6.66342 9.625 0.848139 9.625 1.80508C9.625 1.9523 7.90625 4.82314 5.84375 8.13564C3.78125 11.4481 2.0625 14.4662 2.0625 14.8343C2.0625 16.4537 3.7125 16.3065 6.25625 14.5398L8.9375 12.6259L7.5625 15.3495C6.80625 16.8954 6.4625 18.3676 6.80625 18.7356C7.425 19.3981 12.65 16.8954 13.4062 15.5704C14.1625 14.319 12.375 14.7606 10.2438 16.3801C7.90625 18.1468 7.7 17.5579 9.625 14.4662C12.2375 10.1967 11.1375 9.23981 7.0125 12.2579C5.6375 13.2884 4.2625 14.0981 3.9875 14.0981C3.7125 14.0981 5.225 11.4481 7.2875 8.28286C12.0312 0.774527 12.1687 -1.94908 7.49375 1.43703Z" fill="#EF626C"/>
</svg>
