<svg width="136" height="1353" viewBox="0 0 136 1353" fill="none" xmlns="http://www.w3.org/2000/svg">
<g clip-path="url(#clip0_145_124)">
<path d="M60 1139.9C60.6667 1155.91 61.8667 1182.07 62.6667 1197.86C63.7333 1214.77 64.1333 1238.67 63.6 1256.94C63.2 1275.43 63.3333 1287.15 64.1333 1286.25C65.7333 1284.67 65.7333 1212.51 64 1184.78C61.0667 1136.29 60.2667 1052.41 61.4667 942.59C63.6 753.621 64.2667 152.213 62.4 101.926C61.6 77.7977 60.2667 58.6302 59.6 58.6302C58.8 58.6302 58.6667 64.2677 59.4667 73.7388C60.5333 87.7197 60.9333 229.559 61.3333 638.165C61.4667 715.737 60.8 818.565 60.1333 867.048C58.5333 965.14 58.5333 1095.03 60 1139.9Z" fill="#CD1414"/>
</g>
<defs>
<clipPath id="clip0_145_124">
<rect width="1353" height="136" fill="white" transform="matrix(0 -1 1 0 0 1353)"/>
</clipPath>
</defs>
</svg>
