<?xml version="1.0" standalone="no"?>
<!DOCTYPE svg PUBLIC "-//W3C//DTD SVG 20010904//EN"
 "http://www.w3.org/TR/2001/REC-SVG-20010904/DTD/svg10.dtd">
<svg version="1.0" xmlns="http://www.w3.org/2000/svg"
 width="224.000000pt" height="126.000000pt" viewBox="0 0 224.000000 126.000000"
 preserveAspectRatio="xMidYMid meet">
<g transform="translate(0.000000,126.000000) scale(0.100000,-0.100000)"
fill="#000000" stroke="none">
<path d="M373 834 c-3 -9 0 -20 8 -25 8 -5 326 -8 737 -6 639 2 722 0 716 -13
-23 -59 -64 -278 -64 -341 l0 -39 -52 0 c-29 0 -183 9 -343 21 -223 15 -381
20 -683 19 l-393 0 6 21 c17 53 45 209 45 252 0 39 -3 47 -18 47 -15 0 -20
-15 -31 -92 -7 -51 -22 -130 -34 -175 -11 -45 -17 -86 -13 -90 4 -5 173 -7
374 -5 361 3 407 1 1078 -44 105 -7 99 -12 109 92 9 99 32 217 57 302 11 40
19 75 16 78 -3 3 -344 7 -757 9 -678 4 -752 3 -758 -11z"/>
</g>
</svg>
